<?xml version="1.0" encoding="utf-8"?>
<!-- Generator: Adobe Illustrator 19.0.0, SVG Export Plug-In . SVG Version: 6.00 Build 0)  -->
<svg version="1.1" id="Layer_1" xmlns="http://www.w3.org/2000/svg" xmlns:xlink="http://www.w3.org/1999/xlink" x="0px" y="0px"
	 viewBox="0 0 140.5 77" style="enable-background:new 0 0 140.5 77;" xml:space="preserve">
<style type="text/css">
	.st0{display:none;stroke:#FFFFFF;stroke-miterlimit:10;}
	.st1{fill:#FFFFFF;}
	.st2{fill:#DB1F26;}
	.st3{fill:url(#XMLID_68_);}
	.st4{display:none;fill:#FFFFFF;}
	.st5{font-family:'MyriadPro-Regular';}
	.st6{font-size:14px;}
</style>
<rect id="XMLID_1_" x="-7" y="-13" class="st0" width="188.5" height="114"/>
<g id="XMLID_84_">
	<path id="XMLID_11_" class="st1" d="M89.4,50.2v6.4h35v-6.5H105V31.4h8.7l-11.1-11.7L91.4,31.2h8.3v19H89.4z"/>
	<path id="XMLID_9_" class="st2" d="M9.9,61.1c0,0,6.5-25.6,12.6-32.7c3.5-4.1,6.1-3.7,7.9-3.8c2-0.2,4.5,1.9,4.9,5.7
		c0.7,6.3,1.5,14.6,3,14.7c2.3,0.1,12.8-21.5,14.8-23c1.5-0.7,4.6-1,6.3-0.2c0.3,1.1-11.5,20.9-11.5,20.9s-5.2,7.6-10.9,7.2
		c-5.7-0.4-7.2-5.5-7.7-12c-0.2-6.5-0.4-7.4-1.2-7.5c-1.2,0.1-6.9,12.7-12.1,30.1c-1.2,1.2-3.2,1.4-3.7,1.4
		C10.5,62,9.9,61.1,9.9,61.1z"/>
	<path id="XMLID_15_" class="st1" d="M75.3,21.3l-15.2,0.6v35.5h13.4c0,0,17.5,0.2,17.5-17.8S75.3,21.3,75.3,21.3z M71,51.8
		l-4.9-0.1V26.4h6.4c0,0,12.5-1.2,12.3,13.3C84.6,54.2,71,51.8,71,51.8z"/>
	<radialGradient id="XMLID_68_" cx="100.9062" cy="50.2745" r="8.3871" gradientUnits="userSpaceOnUse">
		<stop  offset="0" style="stop-color:#4276B2"/>
		<stop  offset="0.1989" style="stop-color:#305FAC"/>
		<stop  offset="0.5301" style="stop-color:#1640A5"/>
		<stop  offset="0.809" style="stop-color:#062CA0"/>
		<stop  offset="1" style="stop-color:#00259E"/>
	</radialGradient>
	<path id="XMLID_7_" class="st3" d="M102.9,43.6c4.6,0,8.4,3.8,8.4,8.4c0,4.6-3.8,8.4-8.4,8.4c-4.6,0-8.4-3.8-8.4-8.4
		C94.5,47.4,98.3,43.6,102.9,43.6z"/>
	<path id="XMLID_17_" class="st1" d="M56.3,20L70.2,0.6h4.6l14.3,19.6h-6.4l-10.2-14l-10.1,14h-6.4L56.3,20z"/>
</g>
<g id="XMLID_3_">
	<path id="XMLID_4_" class="st1" d="M0.5,73.5v-9.4h1.3l3,4.8C5.6,70,6.1,71,6.6,71.9l0,0c-0.1-1.3-0.1-2.4-0.1-3.9v-4h1.1v9.4H6.4
		l-3-4.8c-0.7-1-1.3-2.1-1.8-3.2l0,0c0.1,1.2,0.1,2.3,0.1,3.9v4H0.5z"/>
	<path id="XMLID_6_" class="st1" d="M13.4,73.5l-0.1-0.9h0c-0.4,0.5-1.1,1-2.1,1c-1.4,0-2.1-1-2.1-1.9c0-1.6,1.5-2.5,4.1-2.5v-0.1
		c0-0.6-0.2-1.6-1.5-1.6c-0.6,0-1.3,0.2-1.8,0.5l-0.3-0.8c0.6-0.4,1.4-0.6,2.2-0.6c2.1,0,2.6,1.4,2.6,2.8v2.5c0,0.6,0,1.2,0.1,1.6
		H13.4z M13.3,70.1c-1.3,0-2.9,0.2-2.9,1.5c0,0.8,0.5,1.2,1.2,1.2c0.9,0,1.4-0.6,1.6-1.1c0-0.1,0.1-0.3,0.1-0.4V70.1z"/>
	<path id="XMLID_16_" class="st1" d="M16.4,68.6c0-0.7,0-1.3-0.1-1.8h1.1l0.1,1.1h0c0.3-0.6,1.1-1.3,2.2-1.3c0.9,0,2.4,0.6,2.4,2.9
		v4H21v-3.9c0-1.1-0.4-2-1.6-2c-0.8,0-1.4,0.6-1.7,1.3c-0.1,0.2-0.1,0.4-0.1,0.6v4.1h-1.2V68.6z"/>
	<path id="XMLID_20_" class="st1" d="M30.3,70.1c0,2.5-1.7,3.6-3.4,3.6c-1.8,0-3.3-1.3-3.3-3.5c0-2.3,1.5-3.6,3.4-3.6
		C29,66.6,30.3,68,30.3,70.1z M25,70.2c0,1.5,0.9,2.6,2.1,2.6c1.2,0,2.1-1.1,2.1-2.6c0-1.1-0.6-2.6-2-2.6C25.6,67.5,25,68.9,25,70.2
		z"/>
	<path id="XMLID_24_" class="st1" d="M34.9,64.2c0.7-0.1,1.6-0.2,2.6-0.2c1.8,0,3,0.4,3.8,1.2c0.8,0.8,1.3,1.9,1.3,3.4
		c0,1.5-0.5,2.8-1.4,3.7c-0.9,0.9-2.3,1.4-4.2,1.4c-0.9,0-1.6,0-2.2-0.1V64.2z M36.1,72.6c0.3,0.1,0.8,0.1,1.2,0.1c2.6,0,4-1.5,4-4
		c0-2.2-1.2-3.6-3.8-3.6c-0.6,0-1.1,0.1-1.4,0.1V72.6z"/>
	<path id="XMLID_27_" class="st1" d="M44.9,70.4c0,1.7,1.1,2.4,2.3,2.4c0.9,0,1.4-0.2,1.9-0.4l0.2,0.9c-0.4,0.2-1.2,0.4-2.3,0.4
		c-2.1,0-3.3-1.4-3.3-3.4c0-2,1.2-3.7,3.2-3.7c2.2,0,2.8,1.9,2.8,3.2c0,0.3,0,0.4,0,0.6H44.9z M48.5,69.5c0-0.8-0.3-2-1.7-2
		c-1.2,0-1.8,1.1-1.9,2H48.5z"/>
	<path id="XMLID_33_" class="st1" d="M51.7,66.8l1.3,3.8c0.2,0.6,0.4,1.2,0.5,1.7h0c0.2-0.6,0.4-1.1,0.6-1.7l1.3-3.8h1.3l-2.7,6.8
		H53l-2.6-6.8H51.7z"/>
	<path id="XMLID_35_" class="st1" d="M59.4,64.9c0,0.4-0.3,0.8-0.8,0.8c-0.4,0-0.7-0.3-0.7-0.8c0-0.4,0.3-0.8,0.8-0.8
		C59.1,64.1,59.4,64.4,59.4,64.9z M58,73.5v-6.8h1.2v6.8H58z"/>
	<path id="XMLID_38_" class="st1" d="M66.1,73.3c-0.3,0.2-1,0.4-1.9,0.4c-2,0-3.4-1.4-3.4-3.5c0-2.1,1.4-3.6,3.6-3.6
		c0.7,0,1.4,0.2,1.7,0.4l-0.3,1c-0.3-0.2-0.8-0.3-1.4-0.3c-1.6,0-2.4,1.1-2.4,2.6c0,1.6,1,2.5,2.4,2.5c0.7,0,1.2-0.2,1.5-0.3
		L66.1,73.3z"/>
	<path id="XMLID_40_" class="st1" d="M68.1,70.4c0,1.7,1.1,2.4,2.3,2.4c0.9,0,1.4-0.2,1.9-0.4l0.2,0.9c-0.4,0.2-1.2,0.4-2.3,0.4
		c-2.1,0-3.3-1.4-3.3-3.4c0-2,1.2-3.7,3.2-3.7c2.2,0,2.8,1.9,2.8,3.2c0,0.3,0,0.4,0,0.6H68.1z M71.8,69.5c0-0.8-0.3-2-1.7-2
		c-1.2,0-1.8,1.1-1.9,2H71.8z"/>
	<path id="XMLID_43_" class="st1" d="M77.5,64.1h1.2v8.4h4v1h-5.3V64.1z"/>
	<path id="XMLID_45_" class="st1" d="M87.8,73.5l-0.1-0.9h0c-0.4,0.5-1.1,1-2.1,1c-1.4,0-2.1-1-2.1-1.9c0-1.6,1.5-2.5,4.1-2.5v-0.1
		c0-0.6-0.2-1.6-1.5-1.6c-0.6,0-1.3,0.2-1.8,0.5L84,67.2c0.6-0.4,1.4-0.6,2.2-0.6c2.1,0,2.6,1.4,2.6,2.8v2.5c0,0.6,0,1.2,0.1,1.6
		H87.8z M87.6,70.1c-1.3,0-2.9,0.2-2.9,1.5c0,0.8,0.5,1.2,1.2,1.2c0.9,0,1.4-0.6,1.6-1.1c0-0.1,0.1-0.3,0.1-0.4V70.1z"/>
	<path id="XMLID_48_" class="st1" d="M90.7,73.5c0-0.5,0.1-1.1,0.1-1.8v-8.2H92v4.3h0c0.4-0.8,1.2-1.2,2.3-1.2
		c1.7,0,2.9,1.4,2.9,3.5c0,2.4-1.5,3.6-3,3.6c-1,0-1.8-0.4-2.3-1.3h0l-0.1,1.1H90.7z M92,70.8c0,0.2,0,0.3,0.1,0.4
		c0.2,0.9,1,1.4,1.8,1.4c1.3,0,2.1-1.1,2.1-2.6c0-1.4-0.7-2.5-2-2.5c-0.8,0-1.6,0.6-1.9,1.5c0,0.1-0.1,0.3-0.1,0.5V70.8z"/>
	<path id="XMLID_51_" class="st1" d="M104.9,70.1c0,2.5-1.7,3.6-3.4,3.6c-1.8,0-3.3-1.3-3.3-3.5c0-2.3,1.5-3.6,3.4-3.6
		C103.6,66.6,104.9,68,104.9,70.1z M99.5,70.2c0,1.5,0.9,2.6,2.1,2.6c1.2,0,2.1-1.1,2.1-2.6c0-1.1-0.6-2.6-2-2.6
		S99.5,68.9,99.5,70.2z"/>
	<path id="XMLID_54_" class="st1" d="M106.4,68.9c0-0.8,0-1.5-0.1-2.1h1.1l0,1.3h0.1c0.3-0.9,1-1.5,1.9-1.5c0.1,0,0.2,0,0.3,0v1.2
		c-0.1,0-0.3,0-0.4,0c-0.9,0-1.5,0.7-1.7,1.6c0,0.2-0.1,0.4-0.1,0.6v3.6h-1.2V68.9z"/>
	<path id="XMLID_56_" class="st1" d="M114.7,73.5l-0.1-0.9h0c-0.4,0.5-1.1,1-2.1,1c-1.4,0-2.1-1-2.1-1.9c0-1.6,1.5-2.5,4.1-2.5v-0.1
		c0-0.6-0.2-1.6-1.5-1.6c-0.6,0-1.3,0.2-1.8,0.5l-0.3-0.8c0.6-0.4,1.4-0.6,2.2-0.6c2.1,0,2.6,1.4,2.6,2.8v2.5c0,0.6,0,1.2,0.1,1.6
		H114.7z M114.5,70.1c-1.3,0-2.9,0.2-2.9,1.5c0,0.8,0.5,1.2,1.2,1.2c0.9,0,1.4-0.6,1.6-1.1c0-0.1,0.1-0.3,0.1-0.4V70.1z"/>
	<path id="XMLID_59_" class="st1" d="M119.1,64.8v1.9h1.8v0.9h-1.8v3.7c0,0.8,0.2,1.3,0.9,1.3c0.3,0,0.6,0,0.7-0.1l0.1,0.9
		c-0.2,0.1-0.6,0.2-1.1,0.2c-0.6,0-1-0.2-1.3-0.5c-0.4-0.4-0.5-1-0.5-1.8v-3.7h-1.1v-0.9h1.1v-1.6L119.1,64.8z"/>
	<path id="XMLID_61_" class="st1" d="M128.3,70.1c0,2.5-1.7,3.6-3.4,3.6c-1.8,0-3.3-1.3-3.3-3.5c0-2.3,1.5-3.6,3.4-3.6
		C127,66.6,128.3,68,128.3,70.1z M123,70.2c0,1.5,0.9,2.6,2.1,2.6c1.2,0,2.1-1.1,2.1-2.6c0-1.1-0.6-2.6-2-2.6S123,68.9,123,70.2z"/>
	<path id="XMLID_64_" class="st1" d="M129.9,68.9c0-0.8,0-1.5-0.1-2.1h1.1l0,1.3h0.1c0.3-0.9,1-1.5,1.9-1.5c0.1,0,0.2,0,0.3,0v1.2
		c-0.1,0-0.3,0-0.4,0c-0.9,0-1.5,0.7-1.7,1.6c0,0.2-0.1,0.4-0.1,0.6v3.6h-1.2V68.9z"/>
	<path id="XMLID_66_" class="st1" d="M135.3,66.8l1.5,4c0.2,0.4,0.3,1,0.4,1.4h0c0.1-0.4,0.3-0.9,0.4-1.4l1.3-4h1.3l-1.8,4.8
		c-0.9,2.3-1.5,3.5-2.3,4.2c-0.6,0.5-1.2,0.7-1.5,0.8l-0.3-1c0.3-0.1,0.7-0.3,1.1-0.6c0.3-0.3,0.8-0.7,1-1.4
		c0.1-0.1,0.1-0.2,0.1-0.3s0-0.2-0.1-0.3l-2.5-6.2H135.3z"/>
</g>
<text id="XMLID_2_" transform="matrix(1 0 0 1 -0.5418 73.5413)" class="st4 st5 st6">Nano Device Laboratory</text>
</svg>
