<?xml version="1.0" encoding="utf-8"?>
<!-- Generator: Adobe Illustrator 19.0.0, SVG Export Plug-In . SVG Version: 6.00 Build 0)  -->
<svg version="1.1" id="NDL_LOGO" xmlns="http://www.w3.org/2000/svg" xmlns:xlink="http://www.w3.org/1999/xlink" x="0px" y="0px"
	 viewBox="0 0 71.7 38.7" style="enable-background:new 0 0 71.7 38.7;" xml:space="preserve">
<style type="text/css">
	.st0{fill:#FFFFFF;}
	.st1{fill:url(#XMLID_2_);}
	.st2{fill:#DE0000;}
</style>
<g id="L">
	<path id="XMLID_11_" class="st0" d="M47.8,30.4v3.7h20.4v-3.8H56.9V19.5H62l-6.5-6.8L49,19.4h4.9v11.1H47.8z"/>
	<radialGradient id="XMLID_2_" cx="54.5658" cy="30.4803" r="4.89" gradientUnits="userSpaceOnUse">
		<stop  offset="0" style="stop-color:#4276B2"/>
		<stop  offset="0.1989" style="stop-color:#305FAC"/>
		<stop  offset="0.5301" style="stop-color:#1640A5"/>
		<stop  offset="0.809" style="stop-color:#062CA0"/>
		<stop  offset="1" style="stop-color:#00259E"/>
	</radialGradient>
	<path id="XMLID_7_" class="st1" d="M55.7,26.6c2.7,0,4.9,2.2,4.9,4.9c0,2.7-2.2,4.9-4.9,4.9c-2.7,0-4.9-2.2-4.9-4.9
		C50.8,28.8,53,26.6,55.7,26.6z"/>
</g>
<g id="D">
	<path id="XMLID_3_" class="st0" d="M30.8,13.9h7.6c1.7,0,3,0.1,3.9,0.4c1.2,0.4,2.3,1,3.1,1.9c0.9,0.9,1.5,2,2,3.4
		c0.5,1.3,0.7,3,0.7,4.9c0,1.7-0.2,3.2-0.6,4.4c-0.5,1.5-1.3,2.7-2.2,3.7c-0.7,0.7-1.7,1.3-2.9,1.7c-0.9,0.3-2.2,0.4-3.7,0.4h-7.9
		V13.9z M35,17.4v13.7h3.1c1.2,0,2-0.1,2.5-0.2c0.7-0.2,1.2-0.5,1.7-0.9c0.4-0.4,0.8-1.1,1.1-2c0.3-0.9,0.4-2.2,0.4-3.8
		c0-1.6-0.1-2.8-0.4-3.7c-0.3-0.9-0.7-1.5-1.2-2c-0.5-0.5-1.2-0.8-1.9-1c-0.6-0.1-1.7-0.2-3.4-0.2H35z"/>
	<path id="XMLID_17_" class="st0" d="M28.6,12.8l8.1-11.3h2.7L47.7,13H44L38,4.8L32.2,13h-3.7L28.6,12.8z"/>
</g>
<path id="N" class="st2" d="M1.5,36.8c0,0,3.8-14.9,7.4-19.1c2-2.4,3.5-2.1,4.6-2.2c1.2-0.1,2.6,1.1,2.9,3.3
	c0.4,3.7,0.9,8.5,1.7,8.6c1.3,0.1,7.5-12.6,8.6-13.4c0.9-0.4,2.7-0.6,3.6-0.1c0.2,0.6-6.7,12.2-6.7,12.2s-3,4.4-6.4,4.2
	c-3.3-0.2-4.2-3.2-4.5-7c-0.1-3.8-0.2-4.3-0.7-4.4c-0.7,0-4,7.4-7.1,17.6c-0.7,0.7-1.9,0.8-2.1,0.8C1.8,37.3,1.5,36.8,1.5,36.8z"/>
</svg>
