<?xml version="1.0" encoding="utf-8"?>
<!-- Generator: Adobe Illustrator 19.0.0, SVG Export Plug-In . SVG Version: 6.00 Build 0)  -->
<svg version="1.1" id="Layer_1" xmlns="http://www.w3.org/2000/svg" xmlns:xlink="http://www.w3.org/1999/xlink" x="0px" y="0px"
	 viewBox="0 0 298.9 78.7" style="enable-background:new 0 0 298.9 78.7;" xml:space="preserve">
<style type="text/css">
	.st0{fill:#FFFFFF;}
	.st1{fill:#FBB817;}
	.st2{fill:#3D5BA8;}
	.st3{fill:none;}
	.st4{fill:#EC1B30;}
	.st5{fill:#DFCB21;}
</style>
<path id="XMLID_59_" class="st0" d="M132.4,36.9c0-2.2,0.4-4.2,1.1-6c0.8-1.8,1.8-3.3,3.1-4.6c1.3-1.3,2.9-2.3,4.7-3
	c1.8-0.7,3.8-1.1,5.9-1.1c2.1,0,4.1,0.4,6,1.1c1.8,0.7,3.4,1.7,4.7,3c1.3,1.3,2.3,2.8,3.1,4.6c0.8,1.8,1.1,3.8,1.1,6
	c0,2.2-0.4,4.2-1.1,5.9c-0.8,1.8-1.8,3.3-3.1,4.6c-1.3,1.3-2.9,2.3-4.7,3c-1.8,0.7-3.8,1.1-6,1.1c-2.1,0-4.1-0.4-5.9-1.1
	c-1.8-0.7-3.4-1.7-4.7-3c-1.3-1.3-2.3-2.8-3.1-4.6C132.7,41.1,132.4,39.1,132.4,36.9z M137.4,36.9c0,1.5,0.2,2.8,0.7,4.1
	c0.5,1.2,1.1,2.3,2,3.3c0.9,0.9,1.9,1.7,3.1,2.2c1.2,0.5,2.6,0.8,4.1,0.8c1.5,0,2.9-0.3,4.1-0.8c1.2-0.5,2.3-1.3,3.1-2.2
	c0.9-0.9,1.5-2,2-3.3c0.5-1.2,0.7-2.6,0.7-4.1c0-1.5-0.2-2.8-0.7-4.1c-0.5-1.2-1.1-2.3-2-3.3c-0.9-0.9-1.9-1.7-3.1-2.2
	c-1.2-0.5-2.6-0.8-4.1-0.8c-1.5,0-2.9,0.3-4.1,0.8c-1.2,0.5-2.3,1.3-3.1,2.2c-0.9,0.9-1.5,2-2,3.3C137.6,34.1,137.4,35.5,137.4,36.9
	z"/>
<path id="XMLID_56_" class="st0" d="M221,45.9c-1.7,2.1-3.5,3.6-5.5,4.5c-2,0.9-4.3,1.3-6.9,1.3c-2.2,0-4.1-0.4-5.9-1.2
	c-1.7-0.8-3.2-1.8-4.4-3.1c-1.2-1.3-2.1-2.9-2.8-4.6c-0.7-1.8-1-3.7-1-5.7c0-2.1,0.4-4.1,1.1-5.9c0.7-1.8,1.7-3.4,3-4.6
	c1.3-1.3,2.8-2.3,4.5-3c1.7-0.7,3.6-1.1,5.7-1.1c1.9,0,3.7,0.3,5.4,1c1.6,0.7,3,1.6,4.2,2.9c1.2,1.2,2.1,2.8,2.7,4.6
	c0.6,1.8,1,3.9,1,6.2v1.5h-22.5c0.1,1.2,0.4,2.3,0.9,3.4c0.5,1.1,1.1,2,1.9,2.9c0.8,0.8,1.7,1.5,2.8,1.9c1.1,0.5,2.2,0.7,3.5,0.7
	c2,0,3.7-0.4,5.1-1.1c1.4-0.7,2.6-1.8,3.7-3.2L221,45.9z M217,34.6c-0.1-2.4-0.9-4.3-2.3-5.7c-1.5-1.4-3.5-2.1-6.1-2.1
	c-2.6,0-4.7,0.7-6.2,2.1c-1.6,1.4-2.5,3.3-2.9,5.7H217z"/>
<path id="XMLID_55_" d="M275.4,35.8c0,0.2,0,0.4,0,0.5V36C275.4,35.9,275.4,35.9,275.4,35.8z"/>
<path id="XMLID_54_" d="M280,36.3c0-0.2,0-0.4,0-0.5c0,0.1,0,0.2,0,0.2V36.3z"/>
<path id="XMLID_53_" class="st0" d="M298.6,30.2c-0.1-0.4-0.1-0.7-0.2-1.1c-0.1-0.3-0.2-0.6-0.3-0.9c-0.3-0.7-0.5-1.4-0.9-2
	c-0.2-0.3-0.3-0.5-0.5-0.7c-0.4-0.5-0.9-0.9-1.4-1.3c-0.6-0.4-1.2-0.8-1.9-1c0,0,0,0,0,0c-1.2-0.5-2.7-0.7-4.5-0.8
	c-0.2,0-0.3,0-0.5,0c-2.1,0-3.9,0.5-5.2,1.4c-1.3,0.9-2.5,2.2-3.6,3.9c0,0-0.7,1.2-1.5,2.7c-0.8-1.4-1.5-2.7-1.5-2.7
	c-1-1.7-2.2-3-3.6-3.9c-1.3-0.9-3.1-1.4-5.2-1.4c-2,0-3.6,0.3-5,0.8c-1.3,0.5-2.4,1.3-3.3,2.3c-0.8,1-1.4,2.2-1.8,3.7
	c-0.4,1.4-0.5,3.1-0.5,4.8v16.9h4.6V34.2c0-1,0.1-1.9,0.3-2.8c0.2-0.9,0.6-1.7,1.1-2.4c0.5-0.7,1.2-1.3,2.1-1.7
	c0.9-0.4,2-0.7,3.3-0.7c1,0,1.9,0.2,2.8,0.6c0.9,0.4,1.6,1,2.3,1.7c0.7,0.7,1.2,1.6,1.5,2.6c0.4,0.9,0.5,2,0.6,3.1
	c0,0.1,0,0.2,0,0.2V35v15.8h4.6V35v-0.3c0-0.1,0-0.2,0-0.2c0-1.1,0.2-2.2,0.6-3.1c0.4-1,0.9-1.9,1.5-2.6c0.7-0.7,1.4-1.3,2.3-1.7
	c0.9-0.4,1.8-0.6,2.8-0.6c1.3,0,2.5,0.2,3.3,0.7c0.9,0.4,1.6,1,2.1,1.7c0.5,0.7,0.9,1.5,1.1,2.4c0.2,0.9,0.3,1.8,0.3,2.8v27.4h4.6
	V33.9C298.9,32.6,298.8,31.3,298.6,30.2z"/>
<path id="XMLID_52_" class="st1" d="M147.6,13.3h1.1c13.3,0,24.7,10.1,27.9,22.7h3.5c-3.2-14.5-16.2-26.1-31.4-26.1h-1.1
	c-15.1,0-28.1,11.6-31.4,26.1h3.5C122.9,23.4,134.3,13.3,147.6,13.3z"/>
<path id="XMLID_51_" class="st1" d="M146.8,6.5h1.1c15.2,0,28.4,10.6,32.5,24.1h0.5c-3.4-14.5-17.1-26.1-33-26.1h-1.1
	c-15.9,0-29.6,11.6-33,26.1h0.5C118.4,17.1,131.6,6.5,146.8,6.5z"/>
<path id="XMLID_50_" class="st1" d="M147.1,0.7h1.1c16.2,0,30.2,11.2,34,25.4h0.2C178.9,11.6,164.7,0,148.2,0h-1.1
	c-16.5,0-30.7,11.6-34.2,26.1h0.2C116.9,12,130.9,0.7,147.1,0.7z"/>
<path id="XMLID_49_" class="st2" d="M237.1,38.9c-1.8,14.2-14,24.9-28.3,25c-14.3-0.1-26.4-10.9-28.3-25c0,0,0-0.1,0-0.1h-3.4
	c0,0.2,0.1,0.4,0.1,0.6c2,15.2,14.3,26.8,29.5,27.9l2,0.1l0.3,0l1.9-0.1c15.2-1.1,27.6-12.7,29.5-27.9c0-0.2,0.1-0.4,0.1-0.6h-3.4
	C237.1,38.8,237.1,38.8,237.1,38.9z"/>
<path id="XMLID_48_" class="st2" d="M211.7,77.5l-2.1,0.1l-0.3,0l-2.3-0.1c-16.9-1.1-30.6-12.4-33.1-27.3h-0.2
	c0,0.2,0.1,0.4,0.1,0.6c2.2,15.2,16.1,26.8,33.2,27.9l2.3,0.1l0.3,0l2.1-0.1c17.1-1.1,31-12.7,33.2-27.9c0-0.2,0.1-0.4,0.1-0.6h-0.2
	C242.3,65.1,228.6,76.4,211.7,77.5z"/>
<path id="XMLID_47_" class="st2" d="M210.9,71.4l-1.9,0.1l-0.3,0l-2.1-0.1C191.3,70.3,178.8,59,176.2,44h-0.3c0,0.2,0.1,0.4,0.1,0.6
	c2,15.8,14.8,27.8,30.6,28.9l2.1,0.1l0.3,0l1.9-0.1c15.8-1.1,28.5-13.2,30.6-28.9c0-0.2,0.1-0.4,0.1-0.6h-0.3
	C238.6,59,226.2,70.3,210.9,71.4z"/>
<path id="XMLID_46_" class="st3" d="M83.3,43.7c0.9,0.9,1.9,1.7,3.1,2.2c1.2,0.5,2.6,0.8,4.1,0.8c1.5,0,2.9-0.3,4.1-0.8
	c1.2-0.5,2.3-1.3,3.1-2.2c0.9-0.9,1.5-2,2-3.3c0.5-1.2,0.7-2.6,0.7-4.1c0-1.5-0.2-2.8-0.7-4.1c-0.5-1.2-1.1-2.3-2-3.3
	c-0.9-0.9-1.9-1.7-3.1-2.2C93.4,26.3,92,26,90.5,26c-1.5,0-2.9,0.3-4.1,0.8c-1.2,0.5-2.3,1.3-3.1,2.2c-0.9,0.9-1.5,2-2,3.3
	c-0.5,1.2-0.7,2.6-0.7,4.1c0,1.5,0.2,2.8,0.7,4.1C81.8,41.7,82.4,42.8,83.3,43.7z"/>
<path id="XMLID_45_" d="M76,67.9L76,67.9C76,67.9,76,67.9,76,67.9C76,67.9,76,67.9,76,67.9z"/>
<path id="XMLID_44_" class="st4" d="M288.4,20.6c1.9,0,3.8,0.4,5.5,1c-6.1-6.7-14.7-11.7-23.9-11.7h-1.1
	c-15.1,0-28.1,11.6-31.4,26.1h3.5c3.2-12.6,14.6-22.7,27.9-22.7h1.1c6.6,0,12.9,3.2,17.9,7.3C288.1,20.6,288.2,20.6,288.4,20.6z"/>
<path id="XMLID_43_" class="st4" d="M269.1,7.4h1.1c8.6,0,16.7,3.9,22.8,9.5c-6.3-6.3-15-10.8-24.2-10.8h-1.1
	c-15.9,0-29.5,11.6-32.9,26.1h1.6C240.4,18.3,253.7,7.4,269.1,7.4z"/>
<path id="XMLID_42_" class="st4" d="M266.3,3h1.1c8.6,0,16.7,3.8,22.9,9.2c-6.3-5.7-14.6-9.7-23.4-9.7h-1.1
	c-16.1,0-29.9,11.6-33.3,26.1h0.7C236.7,14.3,250.4,3,266.3,3z"/>
<path id="XMLID_39_" class="st0" d="M80.5,45.7h0.1c0.9,1.6,2.3,2.9,4.1,4c1.9,1.1,4.1,1.6,6.6,1.6c1.9,0,3.8-0.4,5.5-1.1
	c1.7-0.7,3.2-1.8,4.4-3.1c1.2-1.3,2.2-2.9,2.9-4.6c0.7-1.8,1.1-3.7,1.1-5.8c0-2.1-0.4-4-1.1-5.8c-0.7-1.8-1.7-3.3-3-4.6
	c-1.3-1.3-2.8-2.3-4.6-3.1c-1.8-0.7-3.8-1.1-6-1.1c-8,0-14.7,6.2-14.7,12.8c0,5,0,18.2,0,25.2c1.5,0.7,2.8,1.2,4.6,1.5V45.7z
	 M81.1,32.6c0.5-1.2,1.1-2.3,2-3.3c0.9-0.9,1.9-1.7,3.1-2.2c1.2-0.5,2.6-0.8,4.1-0.8c1.5,0,2.9,0.3,4.1,0.8c1.2,0.5,2.3,1.3,3.1,2.2
	c0.9,0.9,1.5,2,2,3.3c0.5,1.2,0.7,2.6,0.7,4.1c0,1.5-0.2,2.8-0.7,4.1c-0.5,1.2-1.1,2.3-2,3.3c-0.9,0.9-1.9,1.7-3.1,2.2
	c-1.2,0.5-2.6,0.8-4.1,0.8c-1.5,0-2.9-0.3-4.1-0.8C85,45.7,84,45,83.1,44.1c-0.9-0.9-1.5-2-2-3.3c-0.5-1.2-0.7-2.6-0.7-4.1
	C80.5,35.2,80.7,33.9,81.1,32.6z"/>
<path id="XMLID_38_" class="st2" d="M86,67.2l2,0.1l0.3,0l1.9-0.1c15.2-1.1,27.6-12.7,29.5-27.9c0-0.2,0.1-0.4,0.1-0.6h-3.4
	c0,0,0,0.1,0,0.1c-1.8,14.2-14,24.9-28.3,25C73.8,63.8,61.8,56.4,60,42.3c-0.4-2.8-1.4-6.6-2.5-9.5v11.5C61.2,57,72.5,66.3,86,67.2z
	"/>
<path id="XMLID_37_" class="st2" d="M124.1,50.2c-2.5,14.9-16.2,26.3-33.1,27.3l-2.1,0.1l-0.3,0l-2.3-0.1
	c-11.8-0.8-20.7-7-26.7-15.5c-0.1-0.2-0.3-0.4-0.4-0.6c-0.1-0.1-0.2-0.3-0.3-0.4v1.7c0.6,0.5,1.1,1,1.8,1.9c0.3,0.4,0.6,0.8,0.9,1.1
	c6.1,7.1,14.1,12.2,24.6,12.9l2.3,0.1l0.3,0l2.1-0.1c17.1-1.1,31-12.7,33.2-27.9c0-0.2,0.1-0.4,0.1-0.6H124.1z"/>
<path id="XMLID_36_" class="st2" d="M85.9,73.5l2.1,0.1l0.3,0l1.9-0.1c15.8-1.1,28.5-13.2,30.6-28.9c0-0.2,0.1-0.4,0.1-0.6h-0.3
	c-2.6,15-15.1,26.3-30.4,27.4l-1.9,0.1l-0.3,0l-2.1-0.1C73,70.4,62.2,62.3,57.5,50.8v2.1C62.2,64.4,73,72.5,85.9,73.5z"/>
<path id="XMLID_35_" class="st3" d="M27.1,27.3h1c0.9,0,1.8,0.1,2.7,0.2v-8.9c-1.1-0.1-2.2-0.2-3.3-0.2h-1.1c-0.3,0-0.7,0-1,0v9
	C26,27.4,26.5,27.3,27.1,27.3z"/>
<path id="XMLID_34_" class="st1" d="M55.5,32.2V10.5h-9.9v10.4C49.6,23.9,53,27.7,55.5,32.2z"/>
<path id="XMLID_33_" class="st5" d="M52.2,50.2H52c0,0.2,0.1,0.4,0.1,0.6"/>
<path id="XMLID_32_" class="st2" d="M40.7,7.8h-9.9v7.4c3.5,0.4,6.8,1.4,9.9,2.9V7.8z"/>
<path id="XMLID_31_" class="st4" d="M25.5,2.4h-9.9v14.7c3.1-1.2,6.5-1.9,9.9-2V2.4z"/>
<path id="XMLID_30_" class="st2" d="M9.9,20v-9.5H0v19.4C2.6,25.9,6,22.6,9.9,20z"/>
<path id="XMLID_29_" class="st3" d="M15.6,30.4c-2,1.1-3.9,2.4-5.7,4.1V37c1.8-1.6,3.7-3,5.7-4.1V30.4z"/>
<path id="XMLID_28_" class="st3" d="M25.5,27.4v2.5c0.5,0,1-0.1,1.6-0.1h1c0.9,0,1.8,0.1,2.7,0.2v-2.5v-1.9v0c-1-0.1-2-0.2-3-0.2h-1
	c-0.4,0-0.9,0-1.3,0.1v0.1V27.4z"/>
<rect id="XMLID_27_" x="40.7" y="26.9" class="st5" width="0" height="2"/>
<rect id="XMLID_26_" x="40.7" y="35.3" class="st5" width="0" height="0.7"/>
<path id="XMLID_25_" class="st3" d="M15.6,28.5V28c-2,1-3.9,2.2-5.7,3.6v1v1.9v0c1.8-1.6,3.7-3,5.7-4.1V28.5z"/>
<path id="XMLID_24_" class="st3" d="M15.6,26v-5.2c-2,0.9-3.9,2-5.7,3.4v5.4C11.7,28.1,13.6,26.9,15.6,26z"/>
<path id="XMLID_23_" class="st3" d="M28.1,29.8h-1c-0.5,0-1,0.1-1.6,0.1v1.5c0.3,0,0.5,0,0.8,0h0.9c1.2,0,2.4,0.1,3.6,0.3v-1.7
	C29.9,29.8,29,29.8,28.1,29.8z"/>
<path id="XMLID_22_" class="st3" d="M30.8,43.4v-11c-1.2-0.2-2.4-0.3-3.6-0.3h-0.9c-0.3,0-0.5,0-0.8,0v11.4v1.9v4.4
	c1.1-0.1,2.2-0.2,3.4-0.2h1.1c0.3,0,0.6,0,0.9,0v-4.4V43.4z"/>
<path id="XMLID_21_" class="st3" d="M40.7,28.9v2.2c1.7,1,3.3,2.3,4.8,3.7v-2.5C44.1,31,42.4,29.9,40.7,28.9z"/>
<path id="XMLID_20_" class="st3" d="M45.6,25.3c-1.5-1.3-3.1-2.4-4.8-3.4v5c1.7,1,3.3,2.1,4.8,3.4V25.3z"/>
<path id="XMLID_19_" class="st3" d="M45.6,50.2V39.4C44,38.1,42.4,37,40.7,36v15.5c1.7,0.6,3.3,1.4,4.8,2.2v-2.4V50.2z"/>
<path id="XMLID_18_" class="st3" d="M45.6,37.3c-1.5-1.4-3.1-2.7-4.8-3.7v1.7c1.7,1,3.3,2.1,4.8,3.4V37.3z"/>
<path id="XMLID_17_" class="st3" d="M15.6,46.2V34.7c-2,1-3.9,2.4-5.7,3.9V51v0.4v3.1v1.3c1.8-1.3,3.7-2.4,5.7-3.4v-4.4V46.2z"/>
<path id="XMLID_16_" class="st3" d="M15.6,32.9c-2,1.1-3.9,2.5-5.7,4.1v0.9c1.8-1.5,3.6-2.9,5.7-3.9V32.9z"/>
<path id="XMLID_15_" class="st1" d="M45.6,41.4v10.8v1.1v2.4v2.2h9.9v-2.1C53.5,50.2,50,45.2,45.6,41.4z"/>
<path id="XMLID_14_" class="st1" d="M55.5,53.1v-3.3c-2.4-5.9-5.8-11-9.9-14.9v2.4v1.4C50,42.5,53.5,47.5,55.5,53.1z"/>
<path id="XMLID_13_" class="st1" d="M45.6,32.3v2.5c4.1,3.9,7.6,9,9.9,14.9v-2.3C53.5,41.4,50,36.2,45.6,32.3z"/>
<path id="XMLID_12_" class="st1" d="M55.5,45.3v-4.2h0c-1.5-6.2-5.1-11.8-9.9-15.9v0v5C50,34.2,53.5,39.4,55.5,45.3z"/>
<path id="XMLID_11_" class="st2" d="M30.8,45.4v1.8v4.4v13.7h9.9V49.1v-1.8V38c-3.1-1.8-6.5-3.1-9.9-3.6V45.4z"/>
<path id="XMLID_10_" class="st2" d="M40.7,21.9c-3-1.7-6.4-2.9-9.9-3.3v4.9c3.5,0.4,6.9,1.6,9.9,3.4V21.9z"/>
<path id="XMLID_9_" class="st2" d="M30.8,25.5v1.9v2.5v1.7c3.4,0.5,6.8,1.8,9.9,3.6v-4.2v-1.9v-0.3C37.7,27.1,34.3,26,30.8,25.5
	L30.8,25.5z"/>
<path id="XMLID_8_" class="st4" d="M25.5,23.4v-4.9c-3.5,0.1-6.8,1-9.9,2.4V26C18.7,24.5,22,23.6,25.5,23.4z"/>
<path id="XMLID_7_" class="st4" d="M15.6,30.4v2.5V34c3.1-1.6,6.4-2.5,9.9-2.6v-1.5v-2.5v-2v-0.1c-3.5,0.2-6.8,1.1-9.9,2.6v0.5V30.4
	z"/>
<path id="XMLID_6_" class="st4" d="M25.5,45.5V34.1c-3.5,0.1-6.8,1.1-9.9,2.6v11.5v1.9v4.4v17.2h9.9V51.8v-4.4V45.5z"/>
<path id="XMLID_5_" class="st2" d="M9.9,29.6v-5.4C5.6,27.5,2.1,32,0,37.1v5.9C2.2,37.6,5.7,33,9.9,29.6z"/>
<path id="XMLID_4_" class="st2" d="M9.9,37.9V37v-2.5v0v-1.9v-1C5.7,35,2.2,39.6,0,44.9v2v1.9v4.8C1.9,47.4,5.4,41.9,9.9,37.9z"/>
<path id="XMLID_3_" class="st2" d="M9.9,53.1V40.7c-4.5,4-8,9.5-9.9,15.7v0.2h9.9v-3.1V53.1z"/>
</svg>
