<?xml version="1.0" encoding="utf-8"?>
<!-- Generator: Adobe Illustrator 19.0.0, SVG Export Plug-In . SVG Version: 6.00 Build 0)  -->
<svg version="1.1" id="Layer_1" xmlns="http://www.w3.org/2000/svg" xmlns:xlink="http://www.w3.org/1999/xlink" x="0px" y="0px"
	 viewBox="0 0 324 324" style="enable-background:new 0 0 324 324;" xml:space="preserve">
<style type="text/css">
	.st0{fill:#FFFFFF;}
</style>
<path class="st0" d="M88.1,170.7l1.7,0.1l-0.6,8.9l3.8,0.2l-0.1,1.5l-5.5-0.4L88.1,170.7z M100.2,170.7l5.6,1.5l-0.4,1.4l-4-1.1
	l-0.7,2.5l4,1.1l-0.4,1.4l-4-1.1l-0.9,3.3l4,1.1l-0.4,1.5l-5.6-1.5L100.2,170.7z M109.3,186.1l-1.5-0.9l4.5-7.8l-2.4-1.4l0.7-1.2
	l6.2,3.6l-0.7,1.2l-2.4-1.4L109.3,186.1z M120.8,196.9l-0.9-1.4l7.7-4.7l-1.4-2.4l1.2-0.7l3.7,6.2l-1.2,0.7l-1.4-2.4L120.8,196.9z
	 M133,198.3l0.9,1.5l-3.3,2l2.6,4.4l3.3-2l0.9,1.5l-9,5.3l-0.9-1.5l4.4-2.6l-2.6-4.4l-4.4,2.6l-0.9-1.5L133,198.3z M140,209.4
	l3.9,4.3l-1.1,1l-2.7-3.1l-1.9,1.7l2.7,3.1l-1.1,1l-2.7-3.1l-2.5,2.2l2.7,3.1l-1.1,1l-3.9-4.3L140,209.4z M141.2,226.6l-1.3-0.9
	l5.7-8.7l2,1.3c0.9,0.6,1.6,1.1,1.8,1.9c0.3,0.8,0.1,1.7-0.4,2.5c-0.9,1.4-2.1,1.7-3.5,1l0.4,5.9l-1.6-1.1l-0.3-5.8l-0.2-0.1
	L141.2,226.6z M144.9,221.9c1.2,0.8,2,1.1,2.6,0c0.7-1.1,0.3-1.7-1-2.5l-0.3-0.2l-1.6,2.5L144.9,221.9z M153.1,221.1l5.7,0.9
	l-0.2,1.4l-4.1-0.6l-0.4,2.6l4.1,0.6l-0.2,1.5l-4.1-0.6l-0.5,3.3l4.1,0.6l-0.2,1.5l-5.7-0.9L153.1,221.1z M169.5,223.4l2.5-0.7
	c1.1-0.3,1.9-0.4,2.6-0.1c0.7,0.3,1.3,1,1.5,1.9c0.3,1.1,0,1.9-0.9,2.5c1.2-0.1,2.2,0.6,2.5,2c0.2,0.8,0.1,1.7-0.3,2.3
	c-0.5,0.9-1.5,1.2-2.9,1.6l-2.5,0.7L169.5,223.4z M172.9,227.1c1.5-0.4,2.1-0.9,1.8-1.9c-0.3-1.3-1.1-1.3-2.5-0.9l-0.6,0.2l0.7,2.9
	L172.9,227.1z M174,231.6c0.9-0.2,1.6-0.4,1.9-0.8c0.3-0.4,0.4-0.9,0.3-1.5c-0.2-0.6-0.6-1.1-1.1-1.2c-0.4-0.1-0.9,0-1.4,0.1
	c-0.2,0-0.3,0.1-0.5,0.1l-0.6,0.1l0.8,3.2L174,231.6z M178.7,221.1l5-2.9l0.7,1.2l-3.6,2.1l1.3,2.3l3.6-2.1l0.7,1.3l-3.6,2.1
	l1.7,2.9l3.6-2.1l0.8,1.3l-5,2.9L178.7,221.1z M186,174.7l1.5,0.5L185,183l3.3,1l-0.4,1.3l-4.8-1.5L186,174.7z M195.4,176.9l1.5,0.4
	l-2.5,9.3l-1.5-0.4L195.4,176.9z M208.3,186.5c-0.1,0.4-0.2,0.7-0.2,0.9c-0.7,2.6-2.7,3.7-5.4,3c-1.5-0.4-2.6-1.2-3.2-2.3
	c-0.6-1.1-0.8-2.5-0.4-3.9c0.4-1.4,1.2-2.5,2.4-3.1c1.2-0.6,2.5-0.8,3.9-0.4c1.5,0.4,2.5,1.2,3.1,2.6l-1.3,0.5
	c-0.4-0.9-1.1-1.5-2.1-1.7c-2-0.5-3.8,0.5-4.4,2.6c-0.6,2.1,0.5,3.9,2.5,4.5c1.7,0.5,3-0.1,3.4-1.5c0,0,0-0.1,0-0.1l-2.2-0.6
	l0.3-1.3L208.3,186.5z M213.1,183.2l1.5,0.2l-0.5,3.5l4.7,0.6l0.5-3.5l1.5,0.2l-1.2,9.5l-1.5-0.2l0.6-4.6l-4.7-0.6l-0.6,4.6
	l-1.5-0.2L213.1,183.2z M228.5,193.4l-1.6,0.1l-0.5-8.3l-2.5,0.2l-0.1-1.3l6.6-0.4l0.1,1.3l-2.5,0.2L228.5,193.4z M317.3,197.6
	c-1.2,0-2.3,1-2.3,2.3c0,1.2,1,2.3,2.3,2.3c1.2,0,2.3-1,2.3-2.3C319.6,198.6,318.6,197.6,317.3,197.6 M314,209c-1.2,0-2.3,1-2.3,2.3
	c0,1.2,1,2.3,2.3,2.3c1.2,0,2.3-1,2.3-2.3C316.3,210,315.2,209,314,209 M309.9,220.2c-1.2,0-2.3,1-2.3,2.3c0,1.2,1,2.3,2.3,2.3
	c1.2,0,2.3-1,2.3-2.3C312.2,221.2,311.2,220.2,309.9,220.2 M305,231.1c-1.2,0-2.3,1-2.3,2.3c0,1.2,1,2.3,2.3,2.3
	c1.2,0,2.3-1,2.3-2.3C307.2,232.1,306.2,231.1,305,231.1 M292.7,251.6c-1.2,0-2.3,1-2.3,2.3s1,2.3,2.3,2.3c1.2,0,2.3-1,2.3-2.3
	S294,251.6,292.7,251.6 M285.6,261.1c-1.2,0-2.3,1-2.3,2.3s1,2.3,2.3,2.3c1.2,0,2.3-1,2.3-2.3S286.8,261.1,285.6,261.1 M277.6,270
	c-1.2,0-2.3,1-2.3,2.3s1,2.3,2.3,2.3c1.2,0,2.3-1,2.3-2.3S278.8,270,277.6,270 M269,278.3c-1.2,0-2.3,1-2.3,2.3c0,1.2,1,2.3,2.3,2.3
	c1.2,0,2.3-1,2.3-2.3C271.2,279.3,270.2,278.3,269,278.3 M259.9,286c-1.2,0-2.3,1-2.3,2.3c0,1.2,1,2.3,2.3,2.3c1.2,0,2.3-1,2.3-2.3
	C262.1,287,261.1,286,259.9,286 M250.2,293c-1.2,0-2.3,1-2.3,2.3c0,1.2,1,2.3,2.3,2.3c1.2,0,2.3-1,2.3-2.3
	C252.5,294.1,251.5,293,250.2,293 M240,299.2c-1.2,0-2.3,1-2.3,2.3c0,1.2,1,2.3,2.3,2.3c1.2,0,2.3-1,2.3-2.3
	C242.3,300.3,241.2,299.2,240,299.2 M229.4,304.7c-1.2,0-2.3,1-2.3,2.3c0,1.2,1,2.3,2.3,2.3c1.2,0,2.3-1,2.3-2.3
	C231.6,305.7,230.6,304.7,229.4,304.7 M218.4,309.3c-1.2,0-2.3,1-2.3,2.3c0,1.2,1,2.3,2.3,2.3c1.2,0,2.3-1,2.3-2.3
	C220.6,310.3,219.6,309.3,218.4,309.3 M207,313.1c-1.2,0-2.3,1-2.3,2.3c0,1.2,1,2.3,2.3,2.3c1.2,0,2.3-1,2.3-2.3
	C209.3,314.1,208.2,313.1,207,313.1 M195.4,316c-1.2,0-2.3,1-2.3,2.3c0,1.2,1,2.3,2.3,2.3c1.2,0,2.3-1,2.3-2.3
	C197.7,317,196.7,316,195.4,316 M183.7,318c-1.2,0-2.3,1-2.3,2.3c0,1.2,1,2.3,2.3,2.3c1.2,0,2.3-1,2.3-2.3
	C185.9,319,184.9,318,183.7,318 M171.8,319.2c-1.2,0-2.3,1-2.3,2.3c0,1.2,1,2.3,2.3,2.3c1.2,0,2.3-1,2.3-2.3
	C174.1,320.3,173.1,319.2,171.8,319.2 M159.9,319.5c-1.2,0-2.3,1-2.3,2.3c0,1.2,1,2.3,2.3,2.3c1.2,0,2.3-1,2.3-2.3
	C162.1,320.5,161.1,319.5,159.9,319.5 M147.9,318.9c-1.2,0-2.3,1-2.3,2.3c0,1.2,1,2.3,2.3,2.3c1.2,0,2.3-1,2.3-2.3
	C150.2,319.9,149.2,318.9,147.9,318.9 M136.1,317.5c-1.2,0-2.3,1-2.3,2.3c0,1.2,1,2.3,2.3,2.3c1.2,0,2.3-1,2.3-2.3
	C138.3,318.5,137.3,317.5,136.1,317.5 M124.4,315c-1.2,0-2.3,1-2.3,2.3c0,1.2,1,2.3,2.3,2.3c1.2,0,2.3-1,2.3-2.3
	C126.6,316.1,125.6,315,124.4,315 M112.9,311.8c-1.2,0-2.3,1-2.3,2.3c0,1.2,1,2.3,2.3,2.3s2.3-1,2.3-2.3
	C115.1,312.8,114.1,311.8,112.9,311.8 M101.6,307.7c-1.2,0-2.3,1-2.3,2.3c0,1.2,1,2.3,2.3,2.3s2.3-1,2.3-2.3
	C103.8,308.7,102.8,307.7,101.6,307.7 M90.8,302.8c-1.2,0-2.3,1-2.3,2.3c0,1.2,1,2.3,2.3,2.3c1.2,0,2.3-1,2.3-2.3
	C93,303.8,92,302.8,90.8,302.8 M80.3,297.1c-1.2,0-2.3,1-2.3,2.3c0,1.2,1,2.3,2.3,2.3c1.2,0,2.3-1,2.3-2.3
	C82.5,298.1,81.5,297.1,80.3,297.1 M70.3,290.6c-1.2,0-2.3,1-2.3,2.3c0,1.2,1,2.3,2.3,2.3s2.3-1,2.3-2.3
	C72.6,291.6,71.6,290.6,70.3,290.6 M60.8,283.3c-1.2,0-2.3,1-2.3,2.3c0,1.2,1,2.3,2.3,2.3c1.2,0,2.3-1,2.3-2.3
	C63,284.3,62,283.3,60.8,283.3 M51.8,275.5c-1.2,0-2.3,1-2.3,2.3c0,1.2,1,2.3,2.3,2.3c1.2,0,2.3-1,2.3-2.3
	C54.1,276.5,53.1,275.5,51.8,275.5 M43.4,266.9c-1.2,0-2.3,1-2.3,2.3c0,1.2,1,2.3,2.3,2.3c1.2,0,2.3-1,2.3-2.3
	C45.6,267.9,44.6,266.9,43.4,266.9 M35.8,257.7c-1.2,0-2.3,1-2.3,2.3c0,1.2,1,2.3,2.3,2.3s2.3-1,2.3-2.3
	C38.1,258.7,37.1,257.7,35.8,257.7 M28.8,248c-1.2,0-2.3,1-2.3,2.3c0,1.2,1,2.3,2.3,2.3c1.2,0,2.3-1,2.3-2.3
	C31,249.1,30,248,28.8,248 M22.6,237.7c-1.2,0-2.3,1-2.3,2.3c0,1.2,1,2.3,2.3,2.3c1.2,0,2.3-1,2.3-2.3
	C24.9,238.7,23.9,237.7,22.6,237.7 M17.2,227.2c-1.2,0-2.3,1-2.3,2.3c0,1.2,1,2.3,2.3,2.3s2.3-1,2.3-2.3
	C19.4,228.2,18.4,227.2,17.2,227.2 M12.6,216.2c-1.2,0-2.3,1-2.3,2.3c0,1.2,1,2.3,2.3,2.3c1.2,0,2.3-1,2.3-2.3
	C14.8,217.2,13.8,216.2,12.6,216.2 M8.7,204.8c-1.2,0-2.3,1-2.3,2.3c0,1.2,1,2.3,2.3,2.3c1.2,0,2.3-1,2.3-2.3
	C11,205.8,10,204.8,8.7,204.8 M5.7,193.3c-1.2,0-2.3,1-2.3,2.3c0,1.2,1,2.3,2.3,2.3c1.2,0,2.3-1,2.3-2.3C8,194.3,7,193.3,5.7,193.3
	 M3.8,181.4c-1.2,0-2.3,1-2.3,2.3c0,1.2,1,2.3,2.3,2.3s2.3-1,2.3-2.3C6,182.4,5,181.4,3.8,181.4 M2.6,169.5c-1.2,0-2.3,1-2.3,2.3
	s1,2.3,2.3,2.3c1.2,0,2.3-1,2.3-2.3S3.8,169.5,2.6,169.5 M2.3,157.6c-1.2,0-2.3,1-2.3,2.3c0,1.2,1,2.3,2.3,2.3s2.3-1,2.3-2.3
	C4.5,158.6,3.5,157.6,2.3,157.6 M3,145.6c-1.2,0-2.3,1-2.3,2.3c0,1.2,1,2.3,2.3,2.3c1.2,0,2.3-1,2.3-2.3
	C5.2,146.7,4.2,145.6,3,145.6 M4.5,133.7c-1.2,0-2.3,1-2.3,2.3c0,1.2,1,2.3,2.3,2.3s2.3-1,2.3-2.3C6.7,134.7,5.7,133.7,4.5,133.7
	 M6.8,122.1c-1.2,0-2.3,1-2.3,2.3c0,1.2,1,2.3,2.3,2.3c1.2,0,2.3-1,2.3-2.3C9,123.1,8,122.1,6.8,122.1 M10,110.6
	c-1.2,0-2.3,1-2.3,2.3c0,1.2,1,2.3,2.3,2.3c1.2,0,2.3-1,2.3-2.3C12.3,111.6,11.3,110.6,10,110.6 M14.1,99.3c-1.2,0-2.3,1-2.3,2.3
	c0,1.2,1,2.3,2.3,2.3s2.3-1,2.3-2.3C16.3,100.3,15.3,99.3,14.1,99.3 M19,88.5c-1.2,0-2.3,1-2.3,2.3c0,1.2,1,2.3,2.3,2.3
	c1.2,0,2.3-1,2.3-2.3C21.3,89.6,20.3,88.5,19,88.5 M24.7,78c-1.2,0-2.3,1-2.3,2.3c0,1.2,1,2.3,2.3,2.3s2.3-1,2.3-2.3
	C27,79,26,78,24.7,78 M31.3,67.9c-1.2,0-2.3,1-2.3,2.3c0,1.2,1,2.3,2.3,2.3s2.3-1,2.3-2.3C33.6,68.9,32.6,67.9,31.3,67.9 M38.5,58.4
	c-1.2,0-2.3,1-2.3,2.3c0,1.2,1,2.3,2.3,2.3s2.3-1,2.3-2.3C40.8,59.4,39.7,58.4,38.5,58.4 M46.4,49.5c-1.2,0-2.3,1-2.3,2.3
	c0,1.2,1,2.3,2.3,2.3c1.2,0,2.3-1,2.3-2.3C48.6,50.5,47.6,49.5,46.4,49.5 M55.1,41.2c-1.2,0-2.3,1-2.3,2.3s1,2.3,2.3,2.3
	c1.2,0,2.3-1,2.3-2.3S56.3,41.2,55.1,41.2 M64.1,33.5c-1.2,0-2.3,1-2.3,2.3c0,1.2,1,2.3,2.3,2.3c1.2,0,2.3-1,2.3-2.3
	C66.3,34.5,65.3,33.5,64.1,33.5 M73.9,26.6c-1.2,0-2.3,1-2.3,2.3c0,1.2,1,2.3,2.3,2.3c1.2,0,2.3-1,2.3-2.3
	C76.2,27.6,75.2,26.6,73.9,26.6 M84,20.3c-1.2,0-2.3,1-2.3,2.3s1,2.3,2.3,2.3c1.2,0,2.3-1,2.3-2.3S85.2,20.3,84,20.3 M94.7,14.9
	c-1.2,0-2.3,1-2.3,2.3c0,1.2,1,2.3,2.3,2.3s2.3-1,2.3-2.3C96.9,15.9,95.9,14.9,94.7,14.9 M105.7,10.2c-1.2,0-2.3,1-2.3,2.3
	c0,1.2,1,2.3,2.3,2.3s2.3-1,2.3-2.3C107.9,11.3,106.9,10.2,105.7,10.2 M117,6.4c-1.2,0-2.3,1-2.3,2.3c0,1.2,1,2.3,2.3,2.3
	s2.3-1,2.3-2.3C119.3,7.4,118.2,6.4,117,6.4 M128.6,3.5c-1.2,0-2.3,1-2.3,2.3c0,1.2,1,2.3,2.3,2.3c1.2,0,2.3-1,2.3-2.3
	C130.8,4.5,129.8,3.5,128.6,3.5 M140.4,1.4c-1.2,0-2.3,1-2.3,2.3c0,1.2,1,2.3,2.3,2.3s2.3-1,2.3-2.3C142.6,2.5,141.6,1.4,140.4,1.4
	 M152.2,0.3c-1.2,0-2.3,1-2.3,2.3c0,1.2,1,2.3,2.3,2.3c1.2,0,2.3-1,2.3-2.3C154.5,1.3,153.4,0.3,152.2,0.3 M299.3,241.6
	c-1.2,0-2.3,1-2.3,2.3s1,2.3,2.3,2.3c1.2,0,2.3-1,2.3-2.3S300.5,241.6,299.3,241.6 M164.2,0C163,0,162,1,162,2.3
	c0,1.2,1,2.3,2.3,2.3c1.2,0,2.3-1,2.3-2.3C166.5,1,165.5,0,164.2,0 M176.2,0.6c-1.2,0-2.3,1-2.3,2.3c0,1.2,1,2.3,2.3,2.3
	c1.2,0,2.3-1,2.3-2.3C178.4,1.6,177.4,0.6,176.2,0.6 M188,2.1c-1.2,0-2.3,1-2.3,2.3c0,1.2,1,2.3,2.3,2.3c1.2,0,2.3-1,2.3-2.3
	C190.2,3.1,189.2,2.1,188,2.1 M199.6,4.4c-1.2,0-2.3,1-2.3,2.3c0,1.2,1,2.3,2.3,2.3c1.2,0,2.3-1,2.3-2.3
	C201.9,5.4,200.9,4.4,199.6,4.4 M211.2,7.7c-1.2,0-2.3,1-2.3,2.3c0,1.2,1,2.3,2.3,2.3c1.2,0,2.3-1,2.3-2.3
	C213.5,8.7,212.5,7.7,211.2,7.7 M222.4,11.7c-1.2,0-2.3,1-2.3,2.3c0,1.2,1,2.3,2.3,2.3c1.2,0,2.3-1,2.3-2.3
	C224.7,12.8,223.7,11.7,222.4,11.7 M233.3,16.8c-1.2,0-2.3,1-2.3,2.3s1,2.3,2.3,2.3c1.2,0,2.3-1,2.3-2.3S234.6,16.8,233.3,16.8
	 M243.7,22.5c-1.2,0-2.3,1-2.3,2.3c0,1.2,1,2.3,2.3,2.3c1.2,0,2.3-1,2.3-2.3C246,23.5,245,22.5,243.7,22.5 M253.8,28.9
	c-1.2,0-2.3,1-2.3,2.3c0,1.2,1,2.3,2.3,2.3c1.2,0,2.3-1,2.3-2.3C256,29.9,255,28.9,253.8,28.9 M263.3,36.2c-1.2,0-2.3,1-2.3,2.3
	c0,1.2,1,2.3,2.3,2.3c1.2,0,2.3-1,2.3-2.3C265.5,37.2,264.5,36.2,263.3,36.2 M272.2,44.1c-1.2,0-2.3,1-2.3,2.3s1,2.3,2.3,2.3
	c1.2,0,2.3-1,2.3-2.3S273.5,44.1,272.2,44.1 M280.6,52.7c-1.2,0-2.3,1-2.3,2.3s1,2.3,2.3,2.3c1.2,0,2.3-1,2.3-2.3
	S281.8,52.7,280.6,52.7 M288.2,61.8c-1.2,0-2.3,1-2.3,2.3c0,1.2,1,2.3,2.3,2.3c1.2,0,2.3-1,2.3-2.3
	C290.5,62.8,289.5,61.8,288.2,61.8 M295.2,71.6c-1.2,0-2.3,1-2.3,2.3c0,1.2,1,2.3,2.3,2.3c1.2,0,2.3-1,2.3-2.3
	C297.4,72.6,296.4,71.6,295.2,71.6 M301.5,81.7c-1.2,0-2.3,1-2.3,2.3c0,1.2,1,2.3,2.3,2.3c1.2,0,2.3-1,2.3-2.3
	C303.7,82.7,302.7,81.7,301.5,81.7 M306.9,92.4c-1.2,0-2.3,1-2.3,2.3c0,1.2,1,2.3,2.3,2.3c1.2,0,2.3-1,2.3-2.3
	C309.1,93.4,308.1,92.4,306.9,92.4 M311.5,103.4c-1.2,0-2.3,1-2.3,2.3c0,1.2,1,2.3,2.3,2.3c1.2,0,2.3-1,2.3-2.3
	C313.8,104.4,312.8,103.4,311.5,103.4 M315.3,114.7c-1.2,0-2.3,1-2.3,2.3c0,1.2,1,2.3,2.3,2.3c1.2,0,2.3-1,2.3-2.3
	C317.5,115.7,316.5,114.7,315.3,114.7 M318.3,126.3c-1.2,0-2.3,1-2.3,2.3c0,1.2,1,2.3,2.3,2.3c1.2,0,2.3-1,2.3-2.3
	C320.5,127.3,319.5,126.3,318.3,126.3 M320.3,138.1c-1.2,0-2.3,1-2.3,2.3c0,1.2,1,2.3,2.3,2.3c1.2,0,2.3-1,2.3-2.3
	C322.6,139.1,321.5,138.1,320.3,138.1 M321.4,150c-1.2,0-2.3,1-2.3,2.3c0,1.2,1,2.3,2.3,2.3c1.2,0,2.3-1,2.3-2.3
	C323.7,151,322.6,150,321.4,150 M321.7,162c-1.2,0-2.3,1-2.3,2.3c0,1.2,1,2.3,2.3,2.3c1.2,0,2.3-1,2.3-2.3
	C324,163,323,162,321.7,162 M321.1,174c-1.2,0-2.3,1-2.3,2.3s1,2.3,2.3,2.3c1.2,0,2.3-1,2.3-2.3S322.4,174,321.1,174 M319.6,185.7
	c-1.2,0-2.3,1-2.3,2.3c0,1.2,1,2.3,2.3,2.3c1.2,0,2.3-1,2.3-2.3C321.9,186.7,320.9,185.7,319.6,185.7 M85,259.3
	c0.6-0.8,1-1.4,1.1-1.7c0.1-0.3,0-0.7-0.1-0.8c-0.2-0.3-0.9-0.9-1.2-1.1l0-0.1l0.3-0.4l0.2,0c0.3,0.2,1.3,1.1,3.5,2.7
	c1.2,0.9,2.7,1.8,3.5,2.4c2,1.4,2.9,3.8,1.3,6c-2,2.7-4.8,1.9-5.5,1.6l-1.3-0.5l-0.2,0.1c0,1.5,0.1,9.6,0.3,10.8l0.7,0.8l0,0.2
	l-0.3,0.4l-0.2,0c-0.2-0.1-0.8-0.7-1.4-1.1c-0.4-0.3-1.2-0.8-1.7-1.1c0.4-2.5,0.5-9.3,0.1-11.9l0.4-0.2c2.2,1.6,4.8,2.7,6.8,0
	c1.6-2.2,0.9-3.9-1.1-5.4c-0.8-0.6-1.6-1-2-1.1c-0.5,0.6-1.2,1.3-1.7,2l-6.7,9.2c-0.6,0.8-1,1.4-1.1,1.7c-0.1,0.3,0,0.7,0.1,0.8
	c0.2,0.3,0.9,0.9,1.2,1.1l0,0.2l-0.3,0.4l-0.1,0c-0.3-0.2-1.3-1.1-2.6-2.1c-1.3-1-2.5-1.7-2.8-1.9l0-0.1l0.3-0.4l0.2,0
	c0.3,0.2,1,0.7,1.4,0.8c0.1,0,0.6,0,0.8-0.2c0.2-0.2,0.7-0.8,1.3-1.6L85,259.3z M99.6,282.6c-0.5,0.9-0.8,1.5-0.9,1.9
	c-0.1,0.3,0.1,0.7,0.2,0.8c0.3,0.3,1.1,0.7,1.4,0.9l0,0.2l-0.2,0.5l-0.1,0c-1-0.5-1.9-1.1-2.9-1.7c-1-0.5-2-1-3-1.5l0-0.2l0.2-0.5
	l0.1,0c0.3,0.1,1.1,0.6,1.5,0.6c0.1,0,0.6,0,0.8-0.3c0.2-0.3,0.6-0.9,1-1.8l5.4-10.3c0.5-0.9,0.8-1.5,0.9-1.9
	c0.1-0.3-0.1-0.7-0.2-0.8c-0.3-0.3-1.1-0.7-1.4-0.9l0-0.1l0.2-0.5l0.1,0c1,0.5,1.9,1.1,2.9,1.7c1,0.5,2,1,3,1.5l0,0.2l-0.2,0.5
	l-0.2,0c-0.3-0.1-1.1-0.6-1.5-0.6c-0.1,0-0.6,0-0.8,0.3c-0.2,0.3-0.6,0.9-1,1.8L99.6,282.6z M115.5,293.3c0-4.5-0.3-12.2-0.6-16.7
	c-0.2-2.3-0.2-2.6-1.8-3.2l-0.1-0.1l0.2-0.5l0.1-0.1c1.1,0.4,2.3,0.9,3.4,1.3c1,0.4,2.1,0.7,3.1,1l0.1,0.1l-0.2,0.5l-0.1,0
	c-1.7-0.5-1.9-0.5-2.1,0.1c-0.3,0.9,0.3,12.4,0.3,14.6l0,0c1.8-2,8.7-9.9,9.2-11.3c0.2-0.6-0.3-0.9-1.6-1.4l-0.1-0.1l0.2-0.5
	l0.1-0.1c0.9,0.3,1.7,0.7,2.6,1c0.8,0.3,1.5,0.5,2.2,0.7l0.1,0.1l-0.2,0.5l-0.1,0c-0.9-0.2-1-0.2-2.9,1.8
	c-3.6,3.9-7.3,8.5-10.8,12.6L115.5,293.3z M137.3,283.4c0.2-1,0.2-1.7,0.2-2c0-0.3-0.4-0.6-0.4-0.7c-0.4-0.2-1.1-0.3-1.5-0.4
	l-0.1-0.1l0.1-0.5l0.1-0.1c1.7,0.3,3.4,0.7,5.2,0.9c2.1,0.3,4.2,0.6,6.4,0.9l0.4,0.4l-0.7,3.1l-0.4-0.1l-0.1-0.1
	c0.1-0.4-0.1-1.5-0.3-1.9c-0.7-0.3-2.2-0.7-3.4-0.9c-1-0.2-2.1-0.3-2.7-0.3c-0.2,0.8-0.6,2.7-0.7,3.6c-0.2,1.1-0.3,2.2-0.4,3.2
	c0.3,0.1,1.4,0.3,2.5,0.5c1.3,0.2,3.4,0.4,4.2,0.3l0.1,0.1l-0.2,1.5l-0.1,0.1c-0.3-0.2-1.1-0.4-3.5-0.8c-1.3-0.2-2.4-0.3-2.8-0.3
	l-0.3,0.3c-0.1,0.6-0.3,1.3-0.4,2c-0.2,1.3-0.6,4.1-0.7,5.6c0.6,0.2,2,0.5,3.3,0.7c1.1,0.2,2.7,0.3,3.6,0.2c0.5-0.8,0.7-1,1.1-1.9
	l0.7,0.1c-0.2,0.6-0.5,2-0.7,3.2L145,300c-2.1-0.4-4.2-0.8-6.3-1.1c-2-0.3-3.7-0.6-5-0.7l-0.1-0.1l0.1-0.5l0.1-0.1
	c1.2,0,1.2-0.1,1.6-2.6L137.3,283.4z M157.6,286.1c0-1,0-1.7-0.1-2.1c-0.1-0.3-0.5-0.6-0.6-0.6c-0.4-0.1-1.3-0.1-1.6-0.2l-0.1-0.1
	l0-0.5l0.1-0.1c0.4,0,1.7,0.1,4.5,0.1c1.5,0,3.2-0.1,4.3-0.1c2.4,0,4.6,1.3,4.6,4.1c0,3.3-2.7,4.4-3.4,4.6l-1.3,0.4l-0.1,0.2
	c0.9,1.3,5.8,7.6,6.6,8.5l1.1,0.2l0.1,0.1l0,0.5l-0.1,0.1c-0.2,0-1-0.1-1.8-0.1c-0.5,0-1.4,0-2,0.1c-1.2-2.2-5.2-7.8-7.1-9.6
	l0.2-0.4c2.8,0,5.5-0.7,5.5-4c0-2.7-1.6-3.7-4.1-3.7c-1,0-1.9,0.1-2.3,0.3c-0.1,0.8-0.2,1.8-0.2,2.6l0.1,11.3c0,1,0,1.7,0.1,2.1
	c0.1,0.3,0.5,0.6,0.6,0.6c0.4,0.1,1.3,0.1,1.6,0.1l0.1,0.1l0,0.5l-0.1,0.1c-0.4,0-1.7-0.1-3.4-0.1c-1.7,0-3,0.1-3.4,0.1l-0.1-0.1
	l0-0.5l0.1-0.1c0.4,0,1.2,0,1.6-0.2c0.1,0,0.5-0.3,0.5-0.6c0.1-0.3,0.1-1,0.1-2.1L157.6,286.1z M181.1,295.5l0.1,0.1l0.5,1.7
	c0.1,0.2,1.4,1.6,4.2,1.1c2.6-0.5,4-2.3,3.5-5c-0.9-5.2-10.2-0.3-11.4-6.7c-0.6-3.5,2.5-5.8,5.9-6.4c1.3-0.2,2.9-0.3,4.3,0.1
	c0,1,0,2.4,0.2,3.4l-0.6,0.1l-0.1-0.1c-0.2-0.8-0.3-1-0.6-1.9c-0.9-0.4-1.9-0.9-3.9-0.6c-2.5,0.4-3.4,2.2-3,4
	c1,5.8,10.3,0.5,11.4,6.6c0.8,4.3-2.3,6.8-6.2,7.5c-0.5,0.1-2.8,0.5-4.4-0.3c0.1-0.9,0-1.9-0.2-3.6L181.1,295.5z M204.6,290.7
	c0.3,1,0.6,1.6,0.7,1.9c0.1,0.3,0.6,0.4,0.7,0.4c0.4,0,1.2-0.3,1.6-0.3l0.1,0.1l0.2,0.5l-0.1,0.1c-1.1,0.3-2.1,0.6-3.2,0.9
	c-1.1,0.3-2.1,0.8-3.2,1.1l-0.1-0.1l-0.2-0.5l0.1-0.1c0.3-0.1,1.2-0.4,1.5-0.7c0.1-0.1,0.4-0.4,0.3-0.7c-0.1-0.3-0.2-1-0.6-2
	l-3.6-11c-0.3-1-0.6-1.6-0.7-1.9c-0.1-0.3-0.6-0.4-0.7-0.4c-0.4,0-1.2,0.3-1.6,0.3l-0.1-0.1l-0.2-0.5l0.1-0.1
	c1.1-0.3,2.2-0.6,3.2-0.9c1.1-0.3,2.1-0.8,3.2-1.1l0.1,0.1l0.2,0.5l-0.1,0.1c-0.3,0.1-1.2,0.4-1.5,0.7c-0.1,0.1-0.4,0.4-0.3,0.7
	c0.1,0.3,0.2,1,0.6,2L204.6,290.7z M211.2,276c-0.5-0.9-0.8-1.5-1-1.8c-0.2-0.2-0.7-0.3-0.8-0.3c-0.4,0.1-1,0.4-1.4,0.5l-0.1-0.1
	l-0.2-0.5l0-0.1c0.9-0.4,2.3-1,3.7-1.7c1.9-1,3.5-1.9,4.8-2.5c4.9-2.4,8.9-1.1,11.3,3.7c2.5,5.1,1,11-4.2,13.6
	c-1.4,0.7-2.3,1-3.6,1.7c-1.3,0.6-2.2,1.1-2.7,1.5l-0.1,0l-0.2-0.5l0-0.1c0.9-0.7,0.9-0.8-0.2-3L211.2,276z M225.6,275.1
	c-2.3-4.6-5.8-6.2-10.4-3.9c-1.6,0.8-2.1,1.2-2.9,1.7c0.8,1.6,1.4,3.2,2.2,4.8c1.6,3.2,3.3,6.3,4.9,9.5c0.9-0.2,2.3-0.6,3.2-1
	C227,284,228,279.9,225.6,275.1 M231.6,264.4c-0.6-0.8-1.1-1.4-1.3-1.6c-0.2-0.2-0.7-0.2-0.8-0.2c-0.4,0.1-1,0.5-1.3,0.8l-0.2,0
	l-0.3-0.4l0-0.2c1.4-1,2.9-2,4.3-3.1c1.7-1.3,3.4-2.6,5.1-3.9l0.6,0l1.7,2.7l-0.4,0.3l-0.2,0c-0.2-0.3-1.1-1-1.6-1.1
	c-0.7,0.3-2.1,1.1-3,1.8c-0.8,0.6-1.7,1.3-2.1,1.8c0.4,0.7,1.5,2.3,2,3c0.7,0.9,1.3,1.7,2,2.6c0.3-0.1,1.2-0.8,2.1-1.4
	c1.1-0.8,2.6-2.1,3.1-2.8l0.2,0l0.9,1.2l0,0.2c-0.4,0.1-1.1,0.5-3,1.9c-1,0.8-1.9,1.5-2.2,1.8l-0.1,0.4c0.4,0.5,0.7,1.1,1.1,1.7
	c0.8,1,2.5,3.3,3.5,4.4c0.6-0.3,1.8-1.1,2.8-1.9c0.9-0.7,2.1-1.7,2.7-2.5c-0.2-0.9-0.2-1.2-0.6-2.2l0.5-0.4c0.3,0.6,1,1.8,1.8,2.8
	l-0.1,0.5c-1.7,1.2-3.5,2.4-5.2,3.7c-1.6,1.2-3,2.3-4,3.1l-0.1,0l-0.3-0.4l0-0.2c0.8-0.8,0.7-1-0.8-3L231.6,264.4z M51.8,216.8
	c2.7,0.6,4.6,1.8,5.8,4.1c2.2,4.1,0.3,7.3-2.6,8.8l-8.2,4.5c-2.2,1.2-2.3,2-1.6,3.4l-0.5,0.3l-3.3-6l0.5-0.3
	c0.8,1.4,1.6,1.6,3.7,0.5l8.5-4.7c2.6-1.4,3.6-3.9,2.1-6.7c-1.1-1.9-3-3.1-5.4-3.3L40.6,223c-1.9,1.1-2.4,1.9-1.7,3.2l-0.5,0.3
	l-3.2-5.9l0.5-0.3c0.8,1.4,1.7,1.5,3.7,0.4l10.4-5.7c2.2-1.2,2.3-2.1,1.6-3.4l0.5-0.3l2.3,4.1L51.8,216.8z M44.2,187.5l0.2,0.5
	L32,205.5l0,0.1l12.9-3.6c1.9-0.5,2.3-1.4,1.9-3.1l0.5-0.2l1.6,5.6l-0.5,0.2c-0.4-1.5-1.1-2.1-3.8-1.4l-10.7,3
	c-2.1,0.6-3.1,1.4-2.6,3.7l-0.5,0.2l-1.3-4.7l11.1-15.5l0-0.1l-10.7,3c-2.4,0.7-2.8,1.5-2.4,3.1l-0.5,0.2l-1.6-5.5l0.5-0.2
	c0.5,1.8,1.4,2.2,3.5,1.6L44.2,187.5z M38.6,173.4c2.3-0.2,3-0.9,2.8-2.5l0.6-0.1l0.7,6.8l-0.6,0.1c-0.2-1.6-0.8-2.1-3.2-1.9
	l-11.8,1.2c-2.4,0.2-3,0.8-2.8,2.5l-0.6,0.1l-0.7-6.8l0.6-0.1c0.2,1.6,0.9,2.1,3.2,1.9L38.6,173.4z M42.4,153.8l0,0.5l-15.8,4.9
	c-2.4,0.8-3.3,1.2-3.5,3l-0.6,0l0.4-6.9l0.6,0c-0.1,1.4,0.6,2.1,2.1,1.6l12.6-3.9l-11.6-5.1c-1.6-0.7-2.6-0.5-2.7,1.3l-0.6,0
	l0.3-5.5l0.6,0c-0.1,1.4,0.9,2.6,3.5,3.7L42.4,153.8z M40,124.4l-0.1,0.5c-1.7,0-1.9,0.2-2.4,2.1l-1.2,4.6l6.6,1.7
	c0.9,0.2,1.3,0,1.6-1l0.8-3.2c0.7-2.7,0.8-3.4-1.4-5.1l0.1-0.5l3.2,1.7l-3.5,13.3l-0.5-0.1c0.4-1.4,0.1-2.2-2.3-2.9l-11.5-3
	c-2.3-0.6-3.1-0.3-3.5,1.3l-0.5-0.1l3.5-13.3l3.1,0.8l-0.1,0.4c-2.1-0.1-2.5,0.5-3,2.5l-1.4,5.3l7.9,2.1l1.4-5.2
	c0.3-1.3,0.2-1.8-1.3-2.5l0.1-0.5L40,124.4z M48.9,111.3c2.1,1,3,0.8,3.7-0.6l0.5,0.2l-3,6.2l-0.5-0.2c0.6-1.3,0.5-2.1-1.8-3.3
	l-10.7-5.3c-2.2-1.1-2.9-0.7-3.6,0.6l-0.5-0.3l3.4-7c1.9-3.9,5-4.6,7.3-3.5c1.9,0.9,3,2.7,2.5,5.6c3.6-2.2,9.8-0.5,11.4-3.2l0.5,0.2
	l-1.7,3.5c-5.5,1.3-9.9,0.2-11.5,3.4l-0.7,1.4L48.9,111.3z M43.5,108.6l1-2.1c1.4-2.9,0-5-2-6c-2.3-1.1-4.7-0.2-6,2.4l-0.9,1.8
	L43.5,108.6z M56.4,77.5L56.1,78c-2.4-1.4-4.5-0.5-5.7,1c-1.2,1.6-1.2,3.4,0.3,4.5c2.8,2.1,6.5-1.2,10.3-1.8c1.9-0.3,3,0.2,4,0.9
	c2.4,1.8,2.9,5.2,1.1,7.6c-1.2,1.6-3,2.4-3.4,2.9c-0.2,0.3-0.2,0.6,0.2,1l-0.3,0.5l-4.1-3.1l0.3-0.5c2.9,2.1,5.5,0.5,6.5-0.9
	c1.4-1.8,1.2-3.9-0.4-5.1c-2.6-2-6.9,1.2-9.9,1.7c-1.6,0.2-3-0.2-4.2-1.1c-2.3-1.7-2.7-4.6-0.9-7.1c1.2-1.6,2.4-2,2.8-2.6
	c0.2-0.2,0.2-0.3-0.1-0.7l0.3-0.4L56.4,77.5z M74.5,74.3c1.7,1.6,2.6,1.7,3.7,0.6l0.4,0.4l-4.8,4.9l-0.4-0.4c1.1-1.1,1.1-2-0.6-3.7
	l-8.5-8.3c-1.7-1.7-2.5-1.7-3.7-0.6l-0.4-0.4l4.8-4.9l0.4,0.4c-1.1,1.1-1,2.1,0.6,3.7L74.5,74.3z M89.4,61.7
	c1.4,1.8,2.1,2.1,3.4,1.1l0.3,0.5l-5.4,4l-0.3-0.5c1.1-0.8,1.5-1.6-0.1-3.7l-8.6-11.7l-2.2,1.6c-2.1,1.5-2.6,2.8-1.5,4.5L74.5,58
	l-2.6-3.5l0.5-0.3c0.4,0,0.7,0,1.1-0.2c0.4-0.2,0.9-0.5,1.6-1l8-5.9c1.3-1,1.8-1.6,2-2.4l0.5-0.4l2.6,3.5L87.9,48
	c-1.2-1.1-2.4-1.6-4.9,0.2L80.7,50L89.4,61.7z M110.8,49.2c1,2.1,1.7,2.5,3.2,1.9l0.2,0.5l-6.3,2.9l-0.2-0.5c1.3-0.6,2-1.3,0.8-3.7
	l-2.5-5.4l-6.4-4c-2.1-1.3-2.8-1.5-4.2-0.9l-0.2-0.5l6.8-3.2l0.2,0.5c-1.9,0.9-1.8,1.6-0.6,2.4l5.9,3.7l0.7-5.6
	c0.2-1.8-0.3-3-1.8-2.4l-0.2-0.5l4.7-2.2l0.2,0.5c-1.3,0.7-1.6,1.3-1.8,3.2l-1,7.9L110.8,49.2z M145.6,23.2
	c5.6-0.7,10.6,3.2,11.2,8.7c0.7,5.6-3.3,10.5-8.9,11.2c-5.7,0.7-10.6-3.2-11.3-8.8C136,28.6,139.9,23.8,145.6,23.2 M147.8,42.3
	c4.8-0.6,6.7-5.4,6.2-10c-0.7-6-4.3-8.9-8.2-8.5c-4.5,0.5-6.9,4.5-6.2,10C140.2,39.4,143.5,42.8,147.8,42.3 M172.1,38.6
	c-0.2,2.3,0.3,3.1,1.9,3.2l-0.1,0.6l-6.8-0.7l0.1-0.6c1.6,0.2,2.2-0.5,2.4-2.8l1.1-11.8c0.2-2.4-0.3-3.1-1.9-3.2l0.1-0.6l13,1.2
	l-0.3,3.4l-0.4,0c-0.2-2.4-0.8-2.5-2.8-2.7l-4.8-0.5l-0.8,8l4.9,0.5c1.4,0.1,2-0.5,2.3-2.1l0.5,0.1l-0.5,5.3l-0.5,0
	c0.1-1.4-0.5-2.2-1.8-2.4l-5-0.5L172.1,38.6z M222.3,42.1c0.6-3.7-0.6-5.9-3.6-7.2c-4.2-1.8-7.9,0.6-9.9,5.1
	c-2.3,5.3-1,9.9,2.9,11.6c2.8,1.2,5.3,0.8,7.8-1.2l0.3,0.6c-2.4,2.3-5.9,2.8-9.3,1.4c-4.2-1.8-7.4-6.6-4.9-12.4
	c2.4-5.6,8-8,13.2-5.8c2.2,0.9,3.5,2.4,4.6,2.8c0.5,0.2,0.8,0.1,1.2-0.1l0.5,0.2l-2.3,5.2L222.3,42.1z M238.5,59.4l-5-3.6l-3.3,2.3
	c-1.6,1.1-2.7,2.1-1.1,3.3l-0.3,0.5l-4-2.9l0.3-0.5c1.6,0.8,2.5,0.3,4-0.8l13.4-9.7l1.6,1.1l-5.1,16.5c-0.6,1.8-0.5,2.5,0.9,3.5
	l-0.3,0.5l-5.5-3.9l0.3-0.5c1.1,0.8,1.9,0.7,2.3-0.6L238.5,59.4z M241.4,50.1L241.4,50.1l-6.9,5l4.3,3.1L241.4,50.1z M255,85.5
	l-9.4-10.1l0.4-0.4c1,1.1,2.1,1,3.8-0.6l8.8-8.1c1.6-1.5,1.6-2.3,0.6-3.5l0.4-0.4l4.6,5l-0.4,0.4c-1.1-1.2-2.2-0.9-3.6,0.5l-9.4,8.7
	c-1.1,1-1,1.7,0.1,2.8l2.6,2.8c1.6,1.7,2.4,1.8,4.9,0.6l0.4,0.4L255,85.5z M265.9,94.7c-1.9,1.3-2.2,2.2-1.3,3.5l-0.5,0.3l-3.8-5.7
	l0.5-0.3c0.9,1.3,1.7,1.5,3.7,0.1l9.9-6.6c2-1.3,2.2-2.1,1.3-3.5l0.5-0.3l3.8,5.7l-0.5,0.3c-0.9-1.3-1.8-1.4-3.7-0.1L265.9,94.7z
	 M274.1,109.4c-2.1,1-2.5,1.8-1.8,3.3l-0.5,0.2l-2.9-6.2l0.5-0.2c0.7,1.4,1.5,1.7,3.7,0.7l10.7-5.1c2.2-1,2.5-1.8,1.8-3.3l0.5-0.2
	l5.6,11.8l-3.1,1.5l-0.2-0.4c1.9-1.4,1.8-2,0.9-3.9l-2.1-4.4l-7.2,3.4l2.1,4.5c0.6,1.3,1.5,1.5,3,1l0.2,0.5l-4.8,2.3l-0.2-0.5
	c1.2-0.6,1.6-1.6,1.1-2.8l-2.2-4.5L274.1,109.4z M298.2,130.5c1.3,5.5-2,10.8-7.4,12.1c-5.5,1.3-10.8-2.1-12.1-7.6
	c-1.3-5.5,2-10.9,7.5-12.2C291.8,121.5,296.9,124.8,298.2,130.5 M279.4,134.7c1.1,4.7,6.1,6.1,10.6,5c5.8-1.4,8.4-5.2,7.5-9
	c-1-4.4-5.3-6.3-10.6-5.1C281.5,126.9,278.5,130.5,279.4,134.7 M285.9,157.9c-2.3,0-3,0.6-3,2.1l-0.6,0l0-6.9l0.6,0
	c0,1.5,0.5,2.2,3,2.2l11.9,0.1c2.5,0,3-0.6,3-2.2l0.6,0l0,7.8c0,4.3-2.5,6.3-5,6.3c-2.1,0-3.9-1.2-4.7-3.9c-2.3,3.5-8.6,4.7-8.9,7.9
	l-0.6,0l0-3.9c4.3-3.5,8.8-4.5,8.9-8l0-1.5L285.9,157.9z M291.9,157.9l0,2.3c0,3.2,2.2,4.5,4.4,4.5c2.5,0,4.3-1.9,4.3-4.8l0-2
	L291.9,157.9z M277.5,196.5l0.1-0.6l19.2-9.4l0-0.1l-13-3c-1.9-0.4-2.7,0.2-3.1,1.8l-0.6-0.1l1.3-5.6l0.6,0.1c-0.4,1.6,0,2.4,2.6,3
	l10.9,2.5c2.1,0.5,3.4,0.2,4.1-2l0.5,0.1l-1.1,4.8l-17.1,8.3l0,0.1l10.9,2.5c2.4,0.6,3.2,0.1,3.6-1.6l0.6,0.1l-1.3,5.6l-0.6-0.1
	c0.4-1.8-0.2-2.6-2.4-3.1L277.5,196.5z M275.3,212.2c-2.1-0.9-3-0.7-3.6,0.8l-0.5-0.2l2.7-6.3l0.5,0.2c-0.6,1.4-0.3,2.2,1.9,3.2
	l10.9,4.7c2.2,0.9,3,0.7,3.6-0.8l0.5,0.2l-2.7,6.3l-0.5-0.2c0.6-1.5,0.2-2.3-1.9-3.2L275.3,212.2z M268.3,233.5l3.3-5.2l-2.5-3.2
	c-1.2-1.5-2.2-2.6-3.4-0.9l-0.5-0.3l2.7-4.1l0.5,0.3c-0.8,1.7-0.2,2.5,1,4l10.3,13l-1.1,1.6l-16.8-4.3c-1.8-0.5-2.5-0.4-3.4,1
	l-0.5-0.3l3.7-5.6l0.5,0.3c-0.7,1.1-0.6,1.9,0.7,2.3L268.3,233.5z M277.7,236L277.7,236l-5.3-6.7l-2.9,4.5L277.7,236z M165.6,48.8
	c-0.2-0.5-0.5-1-0.7-1.5 M262.9,204.4c0.4,0.2,0.8,0,1-0.4c0.2-0.4,0-0.8-0.4-1l-20.8-8.6c-0.6,0.3-1.3,0.6-1.9,0.8L262.9,204.4z
	 M271.6,162.5c0.4,0,0.7-0.3,0.7-0.7c0-0.4-0.3-0.7-0.7-0.7h-25.8c0.7,0.6,1.2,1.1,1.6,1.5H271.6z M269.3,183.9
	c0.4,0.1,0.8-0.2,0.9-0.6c0.1-0.4-0.2-0.8-0.6-0.9l-14.5-2.9c0,0.5-0.1,1-0.2,1.5L269.3,183.9z M253.2,181.6
	c-1.6,6-7.1,9.7-12.4,11.9l1.9,0.8c5.2-2.4,10.3-6.3,11.9-12.4c0.1-0.4,0.2-0.7,0.2-1.1l-1.4-0.3C253.4,181,253.3,181.3,253.2,181.6
	 M253.4,180.7l1.4,0.3c0.1-0.5,0.2-1,0.2-1.5l-1.5-0.3C253.6,179.7,253.5,180.2,253.4,180.7 M155.8,130.2l0.3-1.4
	c-10-2.4-20.3-3.6-30.7-3.6c-3.8,0-7.7,0.2-11.4,0.5l0.1,1.5c3.7-0.3,7.5-0.5,11.3-0.5C135.7,126.6,145.9,127.8,155.8,130.2
	 M196.1,117.4c4.5,0,9,0.2,13.5,0.7l0.2-1.5c-4.5-0.5-9.1-0.7-13.6-0.7c-9.6,0-19.2,1-28.5,3.1l0.3,1.4
	C177.2,118.5,186.6,117.4,196.1,117.4 M123.8,135.7c10.8,0,21.6,1.3,32,4l0.4-1.4c-10.5-2.7-21.4-4.1-32.4-4.1
	c-3.1,0-6.3,0.1-9.5,0.3l0.1,1.5C117.5,135.9,120.6,135.7,123.8,135.7 M167.9,138.3l0.4,1.4c10.4-2.7,21.2-4,32-4
	c3.1,0,6.3,0.1,9.4,0.3l0.1-1.5c-3.1-0.2-6.3-0.3-9.5-0.3C189.3,134.3,178.4,135.6,167.9,138.3 M194.8,108.2c4.9,0,9.9,0.3,14.8,0.8
	l0.2-1.5c-4.9-0.6-10-0.9-15-0.9c-9.1,0-18.2,0.9-27,2.8l0.3,1.4C176.8,109.1,185.8,108.2,194.8,108.2 M114.2,107.6l0.2,1.5
	c4.9-0.6,9.9-0.8,14.8-0.8c9,0,18,0.9,26.7,2.8l0.3-1.4c-8.8-1.9-17.9-2.8-27-2.8C124.2,106.7,119.2,107,114.2,107.6 M167.8,128.8
	l0.3,1.4c9.9-2.4,20.1-3.6,30.4-3.6c3.8,0,7.6,0.2,11.3,0.5l0.1-1.5c-3.8-0.3-7.6-0.5-11.4-0.5C188.2,125.1,177.8,126.3,167.8,128.8
	 M114.3,116.7l0.2,1.5c4.4-0.5,9-0.7,13.5-0.7c9.5,0,19,1,28.1,3.1l0.3-1.4c-9.3-2.1-18.9-3.1-28.5-3.1
	C123.3,116,118.7,116.2,114.3,116.7 M114.4,161.7l0,1.5l3.8-0.1c12.8,0,25.5,1.9,37.6,5.6l0.4-1.4c-12.3-3.7-25.1-5.6-38-5.6
	L114.4,161.7z M155.9,149.4l0.4-1.4c-11-2.9-22.4-4.4-33.8-4.4c-2.7,0-5.4,0.1-8.1,0.3l0.1,1.5c2.7-0.2,5.4-0.2,8-0.2
	C133.8,145,145,146.5,155.9,149.4 M114.5,152.8l0.1,1.5l5.8-0.1c12.1,0,24.1,1.7,35.6,5l0.4-1.4c-11.6-3.3-23.8-5-36-5L114.5,152.8z
	 M162,14.5C80.7,14.5,14.6,80.7,14.6,162c0,37.9,14.3,73.9,40.4,101.4l0.5,0.6l7.2-7.8c1.3,0.7,2.5,1.6,3.6,2.8l0.8,1l-7.5,8.1
	l0.5,0.5c27.6,26.4,63.8,40.9,101.9,40.9c38.2,0,74.4-14.5,101.9-40.9l0.5-0.5l-7.1-7.7c0.7-1.1,1.5-2.1,2.5-3
	c0.4-0.4,0.9-0.8,1.4-1.2l7.2,7.8l0.5-0.6c26-27.5,40.4-63.5,40.4-101.4C309.4,80.7,243.3,14.5,162,14.5 M63.7,255l15-16.3l-0.1-0.1
	c-1.3-2.6-1.3-5.1,0-6.4c1.9-1.8,6.2-0.3,9.4,3.2c3.2,3.5,4.4,7.9,2.5,9.6c-1.2,1.1-3.5,0.9-5.9-0.4c-0.5-0.4-0.9-0.8-1.4-1.3
	l-0.5-0.5L68,258.8l-0.7-0.9C66.2,256.8,65,255.8,63.7,255 M76.2,236c-17.7-20.6-27.5-46.7-27.5-74c0-60.7,48-110.4,108-113.2
	c-0.8,1.7-1.5,3-1.6,3.2c-0.6,0.1-10.1,1.5-13.8,2c-0.8,0.1-1.3,0.2-1.4,0.2c0,0,0,0,0,0s0,0,0,0c0,0,0,0.1,0,0.1l8.5,42.8
	c-3.8-0.5-13.1-0.9-12.7-0.9l-15-36.1c-0.2-0.4-0.6-0.6-1-0.4c-0.4,0.2-0.6,0.6-0.4,1l14.7,35.5c-0.3,0-0.5,0-0.8,0
	c-4.8,0.1-9.7,0.3-13.8,0.7c0,0,0.1,0,0.1,0l-17.8-26.7c-0.2-0.3-0.7-0.4-1-0.2c-0.3,0.2-0.4,0.7-0.2,1l17.4,26c0,0,0,0,0.1,0
	c-1.7,0.1-3.4,0.3-4.7,0.4c0,0-0.3,0-0.3,0c-4.1,0.3-8.3,0.8-12.7,1.4c0,0,0,0,0,0c0,0,0,0,0,0L85.1,83.7c-0.3-0.3-0.8-0.3-1,0
	c-0.3,0.3-0.3,0.8,0,1l14.4,14.4c0.3-0.1-5.4,1-5.4,1c-0.4,0.1-0.6,0.4-0.6,0.7v13.5l-21.1-14.1c-0.3-0.2-0.8-0.1-1,0.2
	c-0.2,0.3-0.1,0.8,0.2,1l22,14.7v16l-31.4-13c-0.4-0.2-0.8,0-1,0.4c-0.2,0.4,0,0.8,0.4,1l32,13.2v13.4l-37.8-7.5
	c-0.4-0.1-0.8,0.2-0.9,0.6c-0.1,0.4,0.2,0.8,0.6,0.9l38.1,7.6V161h-40c-0.4,0-0.7,0.3-0.7,0.7c0,0.4,0.3,0.7,0.7,0.7h40v1.5
	c-10.4,1-12,5.9-12.3,7.5c-0.4,2.4-0.8,4.4-1.3,6.1l-24.5,4.9c-0.4,0.1-0.7,0.5-0.6,0.9c0.1,0.4,0.5,0.7,0.9,0.6l23.7-4.7
	c-0.4,1.4-0.9,2.5-1.2,3.4c0,0-1.1,2.4-1.1,2.4c0,0-1.7,3.7-1.7,3.7c-1,2.3-0.7,5.6,0.7,8.3L60.5,203c-0.4,0.2-0.6,0.6-0.4,1
	c0.2,0.4,0.6,0.6,1,0.4l14.8-6.1c0.9,1.2,2,2.3,3.5,3c2.4,1.2,6.2,1.7,9.5,0c1.1-0.6,2.5-1.6,3.6-3.4v9.5l-22,14.7
	c-0.3,0.2-0.4,0.7-0.2,1c0.2,0.3,0.7,0.4,1,0.2l21.1-14.1V226c0,0.4,0.3,0.7,0.7,0.7c0.8,0,1.8,0.1,2.8,0.1h-0.1l-7.2,7.2
	c-3.8-3.8-8.6-5.1-11.1-2.8C76.5,232.3,76,234,76.2,236 M246.5,231.2c-0.8-0.8-2-1.2-3.4-1.1c-2.5,0.1-5.3,1.6-7.7,4l-7.2-7.2H228
	c1,0,2,0,2.8-0.1c0.4,0,0.7-0.3,0.7-0.7v-16.9l21.1,14.1c0.3,0.2,0.8,0.1,1-0.2c0.2-0.3,0.1-0.8-0.2-1l-22-14.7V198
	c2.2-0.4,5.7-1.3,9.3-2.7c0.6-0.3,1.2-0.5,1.9-0.8l-1.9-0.8c-0.7,0.3-1.3,0.5-2,0.8c-2.9,1.1-5.6,1.7-7.3,2.1
	c-0.5,0.1-0.9,0.2-1.2,0.2c-0.1,0-0.2,0-0.3,0c-1.2,0.2-2.4,0.3-3.7,0.4c-0.5,0-1,0.1-1.5,0.1c-1.2,0-2.4,0-3.7,0
	c-0.5,0-1,0-1.5-0.1c-1.2-0.1-2.4-0.2-3.7-0.3c-0.5-0.1-1-0.1-1.5-0.2c-7.9-1-15.8-3.1-22.7-5.1c-1.1-0.3-2.2-0.6-3.2-0.9l-0.2-0.1
	l-3.2-0.9l0,0c-0.1,0-0.2-0.1-0.4-0.1l-0.1,0h0c-4.7-1.3-8.1-2.2-10.5-2.2c0.2-0.4,0.4-1,0.6-1.6c0.1-0.5,0.2-1,0.3-1.6
	c0.2-1.9,0.1-4.4-0.9-7.6c-0.1-0.5-0.3-0.9-0.4-1.4c0,0,0-0.1,0-0.1c-0.3-0.9-0.2-1.7,0.6-2.4c2.8-2.8,12.5-3.3,20-1.1
	c0.5,0.1,0.9,0.3,1.3,0.4l2,0.8l3.4,1.4c3.8,1.6,8.4,3.5,13.4,4.9c0.5,0.1,1,0.3,1.5,0.4c1.2,0.3,2.4,0.6,3.7,0.8
	c0.5,0.1,1,0.2,1.5,0.2c1.2,0.2,2.4,0.3,3.7,0.3c0.5,0,1,0,1.5,0c1.2,0,2.5-0.1,3.7-0.2c0.5-0.1,1-0.1,1.5-0.2
	c2.4-0.4,4.8-1.2,7.1-2.3c0.1-0.1,0.2-0.1,0.3-0.2c0.7-0.4,1.4-0.7,2.1-1.1c4.7-2.6,7.4-5.4,8.2-8.2c0.1-0.5,0.2-0.9,0.2-1.3
	c2.1,2.8,4.2,6.8,4.2,11.1c0,0.3,0,0.6,0,1l1.5,0.3c0.6-6.7-3.7-12.6-6.5-15.7l0,0v0l0,0c0,0,0,0,0,0c-0.2-0.2-0.6-0.7-0.6-0.7
	c0,0-0.3-0.2-0.4-0.3c-0.1-0.1-0.1-0.1-0.2-0.2c-0.4-0.4-0.9-0.9-1.6-1.5c-3.1-2.6-8.5-6.4-14.2-5.6v-5.9c1.4,0.7,2.8,1.3,4.1,1.7
	c6.1,1.9,12.1,1.4,17.8-1.7c2.8-1.5,4.9-3.9,6.5-6.6l9.7-1.9c0.4-0.1,0.7-0.5,0.6-0.9c-0.1-0.4-0.5-0.7-0.9-0.6l-8.5,1.7
	c3.5-7.1,4-15.5,3.9-16.3v0c0-0.5-0.1-0.9-0.2-1.3c-0.1-0.3-0.3-0.5-0.4-0.5c-0.1,0-0.1,0-0.2,0.1l-0.4,0.9l-0.3,0.6
	c-3.6,9.5-11.2,11.3-13.3,11.5c-0.3-1.5-0.4-5.6-1.2-9.8l14.8-6.1c0.4-0.2,0.6-0.6,0.4-1c-0.2-0.4-0.6-0.6-1-0.4l-14.3,5.9
	c-0.2-0.9-3.1-12.4-3.1-12.5c-0.1-0.6-0.4-1-0.6-1c-0.2,0-0.4,0.3-0.5,0.6c-0.1,0.2-0.1,0.4-0.1,0.6l0,0.1l-0.2,1.9l-0.4,4.3
	c-0.2,3.3-0.5,6.1-0.9,8.6l-11.1,4.6v-16l22-14.7c0.3-0.2,0.4-0.7,0.2-1c-0.2-0.3-0.7-0.4-1-0.2l-21.1,14.1v-13.5
	c0-0.4-0.2-0.7-0.6-0.7l-5.4-0.9L240,84.8c0.3-0.3,0.3-0.8,0-1c-0.3-0.3-0.8-0.3-1,0l-15.2,15.2l0,0c-4.3-0.6-8.6-1.1-12.7-1.4
	c0,0-0.2,0-0.2,0c-1.4-0.1-3-0.3-4.7-0.4c0,0,0,0,0,0l17.4-26c0.2-0.3,0.1-0.8-0.2-1c-0.3-0.2-0.8-0.1-1,0.2l-17.8,26.7c0,0,0,0,0,0
	c-4.1-0.3-8.9-0.6-13.7-0.7c-0.3,0-0.6,0-0.8,0l14.7-35.5c0.2-0.4,0-0.8-0.4-1c-0.4-0.2-0.8,0-1,0.4l-15,36.1
	c-4.9,0.1-9.2,0.4-12.7,0.9c0,0,0,0,0,0l8.5-42.8c0,0,0-0.1,0-0.1c0,0,0,0,0,0s0,0,0,0c-0.1,0-0.7-0.1-1.4-0.2
	c-3.7-0.5-13.2-1.9-13.8-2c-0.1-0.2-0.7-1.5-1.6-3.2c60,2.8,108,52.5,108,113.2c0,27.2-9.7,53.3-27.3,73.8
	C248.1,233.9,247.6,232.3,246.5,231.2 M232.5,246.2c1,0.9,2.4,1.2,4,1c-20.7,18.1-46.9,28-74.6,28c-27.7,0-53.9-9.9-74.6-28
	c1.7,0.2,3.1-0.1,4.2-1c2.4-2.3,1.6-7-1.9-11.1l8.2-8.2h-0.2c3.5,0,7.8-0.1,12.5-0.3c2.4-0.1,5-0.1,7.6-0.2l-17.4,26
	c-0.2,0.3-0.1,0.8,0.2,1c0.3,0.2,0.8,0.1,1-0.2l18-26.9c3.4-0.1,6.9-0.1,10.4-0.1c1,1.2,2,2.2,3.1,3.2l-13.8,33.3
	c-0.2,0.4,0,0.8,0.4,1c0.4,0.2,0.8,0,1-0.4l13.6-32.8c4.4,3.7,8.6,5.6,11.9,6.6l-6.4,32c-0.1,0.4,0.2,0.8,0.6,0.9
	c0.4,0.1,0.8-0.2,0.9-0.6l6.3-31.9c1.2,0.3,2.3,0.5,3,0.7l0.2,0.1c2.2,0.4,5.8,1.2,10.3,1.4v31.7c0,0.4,0.3,0.7,0.7,0.7
	c0.4,0,0.7-0.3,0.7-0.7v-31.7c4.1,0.1,8.7-0.3,13.7-1.6l6.2,31.3c0.1,0.4,0.5,0.7,0.9,0.6c0.4-0.1,0.7-0.5,0.6-0.9l-6.2-31.4
	c4-1.2,8.2-3.1,12.4-5.9l13,31.5c0.2,0.4,0.6,0.6,1,0.4c0.4-0.2,0.6-0.6,0.4-1l-13.2-31.8c1.3-0.9,2.5-1.9,3.8-3
	c0.6-0.5,1.2-1.1,1.7-1.6c2.5,0,4.9,0.1,7.4,0.1l18,26.9c0.2,0.3,0.7,0.4,1,0.2c0.3-0.2,0.4-0.7,0.2-1l-17.4-26
	c2.6,0.1,5.1,0.1,7.6,0.2c4.7,0.1,9,0.2,12.5,0.3h-0.1l8.3,8.3c-2.1,2.5-3.3,5.3-3.2,7.7C231.2,244.3,231.7,245.4,232.5,246.2
	 M92.5,194.5c-1,2.5-2.4,4.4-4.3,5.4c-2.8,1.5-6.1,1-8.2,0c-1.1-0.5-2-1.3-2.7-2.2c-0.3-0.4-0.6-0.8-0.8-1.3
	c-1.2-2.4-1.4-5.2-0.7-7.1c0.2-0.2,1.1-1,4.4-1.5c2.3,2.6,4.7,3.8,6.9,4.2c1.4,0.2,2.7,0.2,3.9,0c0.5-0.1,1-0.2,1.4-0.3V194.5z
	 M82.1,187.5c2.3-0.3,5-0.4,8.3-0.3c0.7,0,1.4,0,2.1,0.1v2.8c-0.2,0.1-0.4,0.1-0.6,0.2l-1.3,0.3C88.2,190.9,85,190.5,82.1,187.5
	 M92.5,185.8c-0.7,0-1.4-0.1-2.1-0.1c-4-0.1-7.4,0.1-10,0.5l-1.2,0.3c-1,0.2-1.8,0.4-2.4,0.7c0.4-0.8,0.7-1.6,0.7-1.6
	c0,0,1.1-2.5,1.1-2.5c0.5-1,1-2.4,1.5-4.2c0.1-0.5,0.3-1,0.4-1.6c0.4-1.6,0.8-3.4,1.1-5.5c0.2-1.4,1.6-5.4,10.8-6.3
	c0.5,0,1-0.1,1.5-0.1c0.5,0,1.1-0.1,1.7-0.1c0.7,0,1.4,0,2,0c0.5,0,1,0.1,1.5,0.1c1.2,0.1,2.5,0.2,3.7,0.5c0.5,0.1,1,0.2,1.5,0.3
	c1.2,0.3,2.5,0.6,3.7,1c0.5,0.2,1,0.4,1.5,0.6c1.8,0.7,3.6,1.6,5.3,2.7c0.3,0.2,0.5,0.3,0.8,0.5c0.8,0.5,1.5,1,2.3,1.4
	c3.9,2.6,7,5.3,9.7,8c0.5,0.5,1,1.1,1.5,1.6c2.6,2.9,4.6,5.8,6.4,8.6c0.3,0.6,0.7,1.1,1,1.7c1.1,1.9,2.2,3.8,3.2,5.6
	c0.6,1.1,1.2,2.2,1.8,3.3c0.3,0.6,0.7,1.2,1,1.8c1.9,3.1,3.8,5.9,6.5,8.2c1.1,0.9,2.2,1.8,3.5,2.5c0.3,0.2,0.6,0.3,0.9,0.5
	c0.8,0.4,1.6,0.8,2.4,1.1c1.3,0.5,2.8,0.9,4.7,1.4c0,0,0.1,0.1,0.1,0.1c0.1,0,0.1,0,0.2,0c0.4,0.1,0.7,0.2,1.1,0.3
	c0.1,0,1.7,0.4,4.2,0.6c2.1,0.2,5,0.3,8.4,0.1c6.9-0.4,12.3-2.4,14.5-5.3c0.1-0.2,0.2-0.3,0.3-0.5c4.2,0.2,7.9-0.2,9.3-0.6
	c0.1,0,0.2-0.1,0.3-0.1c0.7,1.2,1.3,2.8,1.4,4.6v0c0,0.5,0,1-0.1,1.5c-0.1,0.9-0.4,1.8-0.8,2.7c-0.2,0.5-0.5,1-0.8,1.5
	c-0.6,1.1-1.5,2.2-2.5,3.3c-0.5,0.5-0.9,1-1.5,1.5c-0.2,0.2-0.3,0.3-0.5,0.5c-1.1,1-2.3,1.9-3.4,2.7c-0.4,0.3-0.8,0.6-1.2,0.9
	c-4,2.8-8.1,4.6-12.1,5.8c-0.5,0.1-1,0.3-1.4,0.4c-4.8,1.3-9.4,1.7-13.4,1.6c-0.5,0-1,0-1.5-0.1c-4.4-0.2-7.9-0.9-10-1.4l-0.3,0
	c-0.8-0.2-1.8-0.4-3-0.7c-0.4-0.1-0.9-0.3-1.4-0.4c-3.2-1-7.4-2.9-11.6-6.6c-0.4-0.3-0.8-0.7-1.2-1.1c-0.6-0.5-1.1-1.1-1.7-1.7
	c-0.4-0.5-0.9-1-1.3-1.5c-0.8-1-1.7-2.1-2.5-3.2c-0.3-0.5-0.7-1-1-1.5c-0.6-0.9-1.1-1.8-1.6-2.8c-0.3-0.5-0.5-1-0.8-1.5
	c-0.3-0.7-0.7-1.3-1-2c-0.9-2.1-1.9-4-2.9-5.8c-0.3-0.5-0.6-1-0.9-1.6c-1.4-2.5-2.8-4.8-4.3-6.8c-0.4-0.5-0.8-1-1.1-1.5
	c-1.7-2.2-3.5-4-5.3-5.6c-0.5-0.4-1-0.8-1.5-1.2c-1.2-0.9-2.4-1.6-3.7-2.3c-0.5-0.3-1-0.5-1.5-0.7c-1.2-0.5-2.4-1-3.7-1.3
	c-0.5-0.1-1-0.3-1.5-0.4c-1.2-0.3-2.4-0.5-3.7-0.6C93.4,185.9,93,185.8,92.5,185.8 M93.9,163.8v-62.3c0.5-0.1,2.3-0.4,3.7-0.6v63
	c-0.7,0-1.4,0-2,0C95,163.8,94.5,163.8,93.9,163.8 M99.7,100.5c0,0,0.8-0.1,0.8-0.1c0.8-0.1,1.6-0.2,2.3-0.3v64.3
	c-1.2-0.2-2.4-0.4-3.7-0.5v-63.3C99.5,100.5,99.7,100.5,99.7,100.5L99.7,100.5z M104.3,164.7V99.9c1.2-0.2,2.4-0.3,3.7-0.4v66.2
	C106.7,165.3,105.5,164.9,104.3,164.7 M141.7,56.1c3.1,3,8.8,8.6,9.2,9c-0.1,0.7-2.6,15.2-2.6,15.2s10.1-5.3,12.9-6.8v28.1l0,0
	c-2.1-1.9-5.8-3.2-11.3-4.1c0,0,0,0,0,0L141.7,56.1z M161.3,103.7v111.6c-2.2-0.5-3.9-1-5.4-1.6c-0.5-0.2-0.9-0.4-1.4-0.6
	c-0.4-0.2-0.8-0.4-1.3-0.7c-3.8-2.2-6.4-5.3-8.7-9c3.8,1,7.5,2.2,11.2,3.5l0.5-1.4c-4.2-1.6-8.5-2.9-12.8-4
	c-0.8-1.4-1.6-2.9-2.5-4.4c-0.8-1.5-1.6-3-2.5-4.5c5.9,1.1,11.7,2.7,17.3,4.8l0.5-1.4c-6.1-2.2-12.4-4-18.8-5.1
	c-1.7-2.8-3.7-5.8-6.2-8.7c8.4,1,16.7,2.9,24.7,5.6l0.5-1.4c-8.6-2.9-17.6-4.8-26.7-5.8c-2.5-2.8-5.5-5.5-9.2-8.1
	c12,0.2,23.9,2.2,35.3,5.9l0.5-1.4c-12.2-3.9-25-5.9-38-6c-0.9-0.6-1.8-1.2-2.8-1.8c-2-1.2-4-2.2-6.1-3V99.3
	c1.2-0.1,2.5-0.2,3.7-0.3c0,0,0.3,0,0.3,0c5-0.5,12.4-1.1,19.9-1.2C153.5,98,159.7,101.1,161.3,103.7 M174,97.5
	c-5.5,0.9-9.2,2.2-11.3,4.1V73.5c2.9,1.5,12.9,6.8,12.9,6.8s-2.5-14.5-2.6-15.2c0.4-0.4,6.1-6,9.2-9L174,97.5
	C174,97.5,174,97.5,174,97.5 M190.7,97.8c7.5,0.1,15,0.7,19.9,1.2c0,0,0.3,0,0.3,0c1.2,0.1,2.5,0.2,3.7,0.3v35.6
	c-4.2,1.8-6.7,4.5-8,6.5c-0.5,0.7-0.9,1.5-1.2,2.2c-1.3,0-2.6-0.1-3.8-0.1c-11.5,0-22.8,1.5-33.8,4.4l0.4,1.4
	c10.9-2.9,22.1-4.4,33.4-4.4c1.1,0,2.2,0,3.3,0.1c-0.2,0.8-0.3,1.4-0.1,1.8c0.4,0.9,1,3.2,1.7,5.9l-2.7-0.1c-12.2,0-24.3,1.7-36,5
	l0.4,1.4c11.5-3.3,23.5-5,35.6-5l3.1,0.1c0.6,2.5,1.3,5.2,1.8,7.5l-2.8,0c-13,0-25.7,1.9-38,5.6l0.4,1.4c12.1-3.7,24.8-5.6,37.6-5.6
	l3.2,0c0.3,1.5,0.6,2.7,0.8,3.6l0.4,1.7c0.4,1.6,1.8,2.9,4,3.5c0.1,0,0.2,0.1,0.3,0.1v5.3c-4.7-1.3-9.1-3.2-12.8-4.7l-0.5-0.2
	c1.6-0.1,3.2-0.1,4.8-0.1l3.5,0.1l0-1.5l-3.6-0.1c-2.7,0-5.4,0.1-8,0.3l-1.8-0.7c-8.3-2.9-19.5-2.4-22.9,1.1
	c-0.8,0.8-1.1,1.6-1.1,2.6c0,0.4,0.1,0.9,0.2,1.3c-1.6,0.4-3.2,0.9-4.8,1.4l0.5,1.4c1.6-0.5,3.2-1,4.8-1.4c0.7,2.3,0.9,4.2,0.9,5.7
	c0,0.8-0.1,1.4-0.2,2c-2,0.6-4.1,1.2-6.1,1.9l0.5,1.4c1.7-0.6,3.5-1.1,5.2-1.6c-0.2,0.5-0.6,1.1-0.6,1.1c-1.6,0.2-3.2,2-4.1,4.6
	c-1.2,3.4-1.1,8.3,2.1,12.6c-1,0.3-1.9,0.7-2.9,1l0.5,1.4c1.1-0.4,2.2-0.8,3.4-1.2c0.2,0.2,0.3,0.3,0.5,0.5c1.7,1.8,4.1,3,6.7,3.9
	c-6,1.5-11.2,3.3-14.4,5.8c-0.8-0.1-1.3-0.2-1.7-0.3v-112C164.3,101.1,170.5,98,190.7,97.8 M219.7,134.9c0.5-0.1,1-0.1,1.5-0.2
	c0.8-0.1,1.6-0.1,2.4-0.1c0.5,0,0.9,0.1,1.2,0.2c0.2,0.1,0.4,0.2,0.6,0.3c0.4,0.5,0.2,1.7,0,3c-0.2,1.4-0.5,2.9-0.1,4.4l0.1,0.2l0,0
	c0.2,0.5,0.5,1.1,0.9,1.6c0.5,0.8,1.2,1.6,2,2.4c-0.7-0.2-1.4-0.5-2-0.7c-0.5-0.1-1-0.3-1.5-0.4c-1.3-0.3-2.5-0.6-3.7-0.7
	c-0.5-0.1-1-0.1-1.5-0.1c-1.3-0.1-2.5,0-3.7,0.2c-0.5,0.1-1,0.2-1.5,0.4c-0.8,0.3-1.5,0.6-2.1,1c-2,1.3-3.2,3.5-3.8,6.3l-0.2,1.5
	c0,0.1,0,0.2,0,0.3c0-0.1-0.1-0.2-0.1-0.3c-0.1-0.5-0.3-1-0.4-1.5c-0.8-3-1.5-5.5-1.9-6.5c0,0,0,0,0,0c0-0.2,0.1-0.6,0.3-1.1
	c0.1-0.4,0.3-0.9,0.6-1.5c0.5-0.9,1.1-1.9,2-3c1.2-1.4,3-3,5.6-4.2c0.5-0.2,1-0.4,1.5-0.6C217.2,135.5,218.4,135.2,219.7,134.9
	 M216.1,134.3V99.4c1.2,0.1,2.4,0.3,3.7,0.4v33.6C218.4,133.6,217.2,133.9,216.1,134.3 M224.9,100.6v32.7c-0.4-0.1-0.8-0.1-1.2-0.1
	c-0.8,0-1.7,0-2.4,0.1v-33.2c0.8,0.1,1.5,0.2,2.3,0.3c0,0,0.8,0.1,0.8,0.1c0,0,0,0,0,0C224.3,100.5,224.5,100.5,224.9,100.6
	 M231.5,144.4c0.9,0,1.8-0.2,2.4-0.4c3.7-1.4,8-4.5,10.1-15.5c0.1-0.6,0.2-1.1,0.3-1.7c0.4-2.3,0.7-5.1,0.9-8.1c0,0,0-0.2,0-0.5
	c1.9,2.9,3.1,19.1,3.2,19.5l0.1,0.5l0.6,0.1c1.4,0.1,9.2-1.4,13.8-9.5c-0.5,3.4-1.6,8.5-4,12.8c-0.3,0.6-0.7,1.2-1.1,1.7
	c-1.4,2-3.1,3.7-5.2,4.8c-5.3,2.8-10.9,3.3-16.6,1.6c-1-0.3-2-0.7-3-1.2l-0.1,0c-0.1,0-0.1-0.1-0.2-0.1c-1.1-0.8-2-1.5-2.7-2.2v0
	c-0.9-0.8-1.6-1.6-2.1-2.2c0.7,0.2,1.4,0.3,2.1,0.4v0C230.6,144.4,231.1,144.5,231.5,144.4 M231.5,143v-9.2l10.8-4.5
	c-2.3,10.9-6.8,12.6-8.9,13.4C232.9,142.8,232.3,142.9,231.5,143 M231.5,174.8v-7.3c0.2-0.2,0.5-0.4,0.7-0.6
	c3.6-3.1,6.6-4.2,8.9-4.4c0.6-0.1,1.2-0.1,1.7,0c1.8,0.2,3,0.9,3.6,1.3l0.6,0.6l0.3,0.3c0.4,0.7,0.8,1.8,0.4,3.3
	c-0.5,1.9-2.6,4.8-9.1,8.2L231.5,174.8z M236.5,177.3c-1.6,0.7-3.3,1.1-5,1.4v-2.4L236.5,177.3z M236.2,162.5
	c-1.4,0.7-3,1.7-4.7,3.1c-0.1,0.1-0.2,0.1-0.2,0.2c-0.4,0.4-0.8,0.7-1.3,1c-1.2,0.9-2.5,1.7-3.7,2.3c-0.5,0.2-1,0.5-1.5,0.7
	c-1.3,0.5-2.5,0.9-3.7,1.1c-0.5,0.1-1,0.2-1.5,0.2c-1.3,0.1-2.6,0.1-3.7-0.1c-0.5-0.1-0.9-0.2-1.4-0.3c0,0-0.1,0-0.1,0
	c-1.6-0.5-2.7-1.4-2.9-2.4l-0.4-1.6c-0.4-1.9-1.2-5.1-2-8.4c1.1,0.9,2.8,1.8,5.3,2.3c0.5,0.1,1,0.1,1.5,0.2c1.1,0.1,2.3,0.1,3.7-0.1
	c0.5-0.1,1-0.1,1.5-0.2c1.1-0.2,2.4-0.5,3.7-0.9c0.5-0.2,1-0.3,1.5-0.5c0.9-0.3,1.9-0.7,2.9-1.2c0.3-0.1,0.6-0.2,0.8-0.3
	c0.5-0.2,1-0.3,1.5-0.4c4.4-0.7,8.9,1.8,11.9,4.1c0.1,0,0.1,0.1,0.2,0.1C241.7,160.9,239.2,161,236.2,162.5 M230.1,168.7V179
	c-1.2,0.2-2.5,0.2-3.7,0.2v-8.5C227.6,170.2,228.8,169.5,230.1,168.7 M224.9,171.4v7.8c-1.2-0.1-2.5-0.2-3.7-0.4v-6.5
	C222.4,172.1,223.6,171.8,224.9,171.4 M219.7,172.5v6.1c-1.2-0.2-2.5-0.5-3.7-0.8v-5.4C217.2,172.6,218.4,172.6,219.7,172.5
	 M209.8,156.5c0-4.3,1.2-7.2,3.6-8.8c0.4-0.2,0.8-0.5,1.3-0.7v11.8C212.2,158.4,210.6,157.3,209.8,156.5 M216.1,159v-12.5
	c1-0.2,2.2-0.3,3.7-0.3v12.6C218.4,159.1,217.2,159.1,216.1,159 M221.2,158.7v-12.2c1.1,0.1,2.3,0.4,3.7,0.7v10.5
	C223.6,158.2,222.3,158.5,221.2,158.7 M226.4,157.2v-9.6c1.1,0.4,2.4,0.8,3.7,1.3v6.8c-0.5,0.1-1,0.3-1.4,0.5
	C227.8,156.6,227.1,156.9,226.4,157.2 M230.1,142.9c-1.1-0.1-2.3-0.5-3.3-1.1c-0.1-0.3-0.1-0.6-0.1-1c0-0.8,0.1-1.6,0.3-2.4
	c0.1-0.8,0.3-1.5,0.3-2.2c0-0.7-0.1-1.4-0.6-1.9c-0.1-0.1-0.1-0.1-0.2-0.2v-33.1c1.4,0.2,3.2,0.6,3.7,0.6V142.9z M224.9,219.8
	c-3.1,0.1-7.3,0.1-12.2,0.1c-3.6,0-7.5,0-11.5,0.1c0.3-0.9,0.6-1.8,0.7-2.8c2.6,0,5,0,7.4,0c4.5,0,8.3,0,11.3-0.2l0.7,0v-18.3
	c1.2,0,2.5,0,3.7,0V219.8z M225.7,221.2l0.7,0v-22.6c1.3-0.1,2.5-0.2,3.7-0.4v27.1c-3.8,0.1-9.6,0-16.4-0.2
	c-4.9-0.1-10.2-0.3-15.4-0.3c0.9-1.1,1.7-2.2,2.2-3.4c4.3-0.1,8.4-0.1,12.2-0.1C217.9,221.4,222.4,221.4,225.7,221.2 M219.7,215.5
	c-2.9,0.1-6.4,0.1-10.5,0.2c-2.3,0-4.8,0-7.3,0c0,0,0,0,0,0c-0.1-3.4-1.8-5.9-3.1-7.3c6.5-0.7,12.5-1.1,16.6-1.3l0.7,0v-8.6
	c1.2,0.1,2.4,0.2,3.7,0.3V215.5z M214.6,205.6c-4.4,0.2-10.6,0.7-17.2,1.5c0,0-0.1,0-0.1-0.1c0,0-0.2-0.2-0.2-0.2c0-0.1-1.3-1-1.3-1
	c0,0-2.4-1.6-2.4-1.6c0,0-1.9-1.2-1.9-1.2c-0.8-0.5-1.6-1-2.4-1.5c6.8-1.2,13.7-1.8,20.7-1.8v-1.5c-7.6,0-15.1,0.7-22.4,2.1
	c-1.5-1.1-2.7-2.2-3.3-3.3c-0.2-0.5-0.3-1-0.3-1.5c0-0.8,0.3-1.6,0.7-2.4c0.3-0.6,0.7-1.2,1.1-1.7c0.7,0.2,3,0.9,3,0.9
	c0,0,0.1,0,0.1,0c7.6,2.2,16.9,4.9,26.1,6V205.6z M183.4,191.6c-0.3,0.6-0.6,1.1-0.8,1.7c-0.5,1.5-0.5,3,0.1,4.2
	c0.5,1.1,1.5,2.1,2.7,3c0.5,0.4,1,0.8,1.6,1.2c1.2,0.8,2.4,1.6,3.7,2.4l1.9,1.2c0,0,2.3,1.6,2.3,1.6c0,0,0.1,0.1,0.3,0.2l1.4,1.2
	c0.1,0.1,0.2,0.2,0.3,0.3c0.3,0.3,0.8,0.8,1.2,1.3l-0.6,0.1c-4,0.8-18.6,1.2-24.4-4.8c-4.1-4.3-4.4-9.4-3.2-12.8
	c0.8-2.2,2-3.4,2.8-3.6c0,0,3-0.4,11.1,2C183.7,191.1,183.5,191.3,183.4,191.6 M187.6,211.8c-2.1,2.4-7.1,4.1-13.2,4.5
	c-3,0.2-5.6,0.1-7.7-0.1c3.6-2.2,9-3.9,15.1-5.2C183.7,211.4,185.7,211.7,187.6,211.8 M103.5,217c3,0.2,6.9,0.2,11.3,0.2
	c2.9,0,6,0,9.2,0.1c0.5,1,1,1.9,1.6,2.8c-5-0.1-9.9-0.1-14.2-0.1c-4.9,0-9.1,0-12.2-0.1v-31.2c1.3,0.4,2.5,0.9,3.7,1.5v27L103.5,217
	z M108.6,207c2.8,0.2,6.5,0.4,10.7,0.8c1.1,2,2.2,4.2,3.3,6.6c0.2,0.5,0.4,0.9,0.7,1.4c-2.9,0-5.8-0.1-8.4-0.1
	c-4.1,0-7.7,0-10.5-0.2v-24.8c1.3,0.7,2.5,1.5,3.7,2.5V207L108.6,207z M109.4,205.6v-11.1c3.2,2.9,6.2,6.8,9,11.7
	C115,205.9,111.9,205.7,109.4,205.6 M93.9,189.5v-2c1.3,0.2,2.5,0.4,3.7,0.7v33.1l0.7,0c3.2,0.2,7.7,0.2,13,0.2
	c4.6,0,9.9,0,15.2,0.1c0.8,1.2,1.6,2.3,2.4,3.3c-6.3,0-12.7,0.2-18.6,0.3c-6.8,0.2-12.6,0.3-16.4,0.2v-30.4V189.5z M167.9,53.4
	c0,0,10.7,1.6,13.1,1.9c-1.7,1.7-9.5,9.2-9.5,9.2s1.8,10.7,2.2,13.1c-1.8-0.9-8.7-4.6-11-5.8l-0.7-0.4c0,0-0.3,0.1-0.7,0.4
	c-2.3,1.2-9.2,4.8-11,5.8c0.4-2.4,2.2-13.1,2.2-13.1s-7.8-7.6-9.5-9.2c2.4-0.3,12.7-1.8,12.7-1.8l0.4-0.1c0,0,1-2.1,2.3-4.6l0.7-1.5
	l2.8-5.8c0.5,0.9,1.7,3.4,2.8,5.8c0.3,0.5,0.5,1,0.7,1.5C166.8,51.3,167.9,53.4,167.9,53.4 M262.4,267.9
	c-27.2,25.8-62.8,40-100.4,40c-37.5,0-73.2-14.2-100.4-40c0.9-1,20.3-21.9,21.2-22.9c21.4,20.5,49.5,31.7,79.2,31.7
	c29.7,0,57.7-11.3,79.2-31.7C242.1,246,261.4,266.9,262.4,267.9 M258.8,256.2c-1,0.9-1.8,1.9-2.5,3l-15.1-16.3l-0.5,0.5
	c-0.5,0.5-1,1-1.5,1.4c-2.3,1.2-4.5,1.3-5.6,0.2c-0.6-0.5-0.9-1.3-0.9-2.3c-0.1-2.2,1.2-5,3.4-7.4c2.2-2.3,4.9-3.8,7.1-3.9
	c1,0,1.8,0.2,2.3,0.7c1.3,1.2,1.3,3.6,0.1,6.1l-0.3,0.4l15,16.2C259.7,255.4,259.3,255.8,258.8,256.2 M268.5,261.8
	c-1-1.1-20.4-22.1-21.3-23c19-21.1,29.5-48.3,29.5-76.8c0-61.8-49-112.3-110.2-114.7c-2-4-4.5-9.2-4.5-9.2l-0.7,1.3
	c0,0-2.1,4.3-3.9,7.8C96.3,49.7,47.3,100.2,47.3,162c0,28.4,10.5,55.7,29.5,76.8c-0.8,0.9-20.2,21.9-21.3,23
	c-25.4-27.2-39.4-62.5-39.4-99.8C16.1,81.5,81.5,16,162,16c80.5,0,145.9,65.5,145.9,146C307.9,199.2,293.9,234.6,268.5,261.8"/>
</svg>
